<svg width="325" height="287" viewBox="0 0 325 287" fill="none" xmlns="http://www.w3.org/2000/svg">
<g clip-path="url(#clip0_1_392)">
<rect width="324.691" height="286.72" rx="10.8489" fill="white"/>
<path d="M36.4212 30.9982L31.7717 26.3487L36.4212 21.6992" stroke="black" stroke-width="1.54984" stroke-linecap="round" stroke-linejoin="round"/>
<path d="M135.971 20.89V32.0488H134.375V24.4004C134.375 24.2764 134.378 24.1421 134.383 23.9974C134.393 23.8476 134.406 23.6978 134.422 23.548L130.834 30.1735C130.694 30.4473 130.48 30.5842 130.191 30.5842H129.935C129.64 30.5842 129.426 30.4473 129.292 30.1735L125.649 23.5325C125.665 23.6823 125.675 23.8321 125.68 23.9819C125.691 24.1317 125.696 24.2712 125.696 24.4004V32.0488H124.1V20.89H125.456C125.616 20.89 125.74 20.9055 125.828 20.9365C125.916 20.9623 125.996 21.0476 126.068 21.1922L129.648 27.6783C129.726 27.8281 129.798 27.9831 129.865 28.1432C129.937 28.2982 130.002 28.4584 130.059 28.6237C130.121 28.4584 130.185 28.2956 130.253 28.1355C130.325 27.9702 130.4 27.8126 130.477 27.6628L134.003 21.1922C134.075 21.0476 134.156 20.9623 134.243 20.9365C134.331 20.9055 134.455 20.89 134.615 20.89H135.971ZM141.48 24.0207C142.063 24.0207 142.59 24.1162 143.06 24.3074C143.536 24.4985 143.939 24.7698 144.269 25.1211C144.605 25.4724 144.863 25.8986 145.044 26.3997C145.225 26.9008 145.315 27.4639 145.315 28.089C145.315 28.7141 145.225 29.2772 145.044 29.7783C144.863 30.2794 144.605 30.7082 144.269 31.0647C143.939 31.416 143.536 31.6872 143.06 31.8783C142.59 32.0695 142.063 32.1651 141.48 32.1651C140.891 32.1651 140.358 32.0695 139.883 31.8783C139.413 31.6872 139.01 31.416 138.674 31.0647C138.339 30.7082 138.08 30.2794 137.899 29.7783C137.719 29.2772 137.628 28.7141 137.628 28.089C137.628 27.4639 137.719 26.9008 137.899 26.3997C138.08 25.8986 138.339 25.4724 138.674 25.1211C139.01 24.7698 139.413 24.4985 139.883 24.3074C140.358 24.1162 140.891 24.0207 141.48 24.0207ZM141.48 30.8632C142.192 30.8632 142.722 30.6256 143.068 30.1503C143.419 29.6698 143.595 28.9853 143.595 28.0967C143.595 27.2082 143.419 26.5237 143.068 26.0432C142.722 25.5576 142.192 25.3148 141.48 25.3148C140.756 25.3148 140.219 25.5576 139.868 26.0432C139.516 26.5237 139.341 27.2082 139.341 28.0967C139.341 28.9853 139.516 29.6698 139.868 30.1503C140.219 30.6256 140.756 30.8632 141.48 30.8632ZM148.474 25.1908C148.644 25.0151 148.82 24.8576 149.001 24.7181C149.187 24.5734 149.383 24.4495 149.59 24.3461C149.796 24.2428 150.016 24.1627 150.248 24.1059C150.481 24.0491 150.734 24.0207 151.008 24.0207C151.442 24.0207 151.821 24.093 152.147 24.2376C152.478 24.3823 152.754 24.5864 152.976 24.8498C153.203 25.1133 153.374 25.431 153.487 25.803C153.601 26.1698 153.658 26.5753 153.658 27.0196V32.0488H152V27.0196C152 26.4875 151.876 26.0742 151.628 25.7797C151.385 25.4853 151.013 25.338 150.512 25.338C150.14 25.338 149.794 25.4233 149.473 25.5938C149.158 25.7642 148.861 25.9967 148.582 26.2912V32.0488H146.916V24.1447H147.924C148.151 24.1447 148.296 24.2506 148.358 24.4624L148.474 25.1908ZM158.032 32.1728C157.376 32.1728 156.869 31.9894 156.513 31.6226C156.162 31.2507 155.986 30.7289 155.986 30.0573V25.4543H155.118C155.025 25.4543 154.945 25.4259 154.878 25.369C154.811 25.307 154.777 25.2166 154.777 25.0978V24.4236L156.056 24.2376L156.42 21.9516C156.446 21.8638 156.49 21.7941 156.552 21.7424C156.614 21.6856 156.696 21.6572 156.8 21.6572H157.652V24.2531H159.845V25.4543H157.652V29.941C157.652 30.2252 157.722 30.4422 157.861 30.592C158.001 30.7418 158.187 30.8167 158.419 30.8167C158.548 30.8167 158.659 30.8012 158.752 30.7702C158.845 30.734 158.926 30.6979 158.993 30.6617C159.06 30.6204 159.117 30.5842 159.163 30.5532C159.215 30.5171 159.264 30.499 159.31 30.499C159.403 30.499 159.478 30.5507 159.535 30.654L160.031 31.4676C159.773 31.6949 159.468 31.8706 159.117 31.9946C158.765 32.1134 158.404 32.1728 158.032 32.1728ZM162.824 25.0823C163.15 24.762 163.506 24.5063 163.894 24.3151C164.281 24.1188 164.733 24.0207 165.25 24.0207C165.684 24.0207 166.064 24.093 166.389 24.2376C166.72 24.3823 166.996 24.5864 167.218 24.8498C167.446 25.1133 167.616 25.431 167.73 25.803C167.843 26.1698 167.9 26.5753 167.9 27.0196V32.0488H166.242V27.0196C166.242 26.4875 166.118 26.0742 165.87 25.7797C165.627 25.4853 165.255 25.338 164.754 25.338C164.382 25.338 164.036 25.4233 163.716 25.5938C163.4 25.7642 163.103 25.9967 162.824 26.2912V32.0488H161.158V20.58H162.824V25.0823ZM180.325 24.1447L175.97 34.2961C175.913 34.4149 175.843 34.5079 175.761 34.5751C175.683 34.6422 175.562 34.6758 175.396 34.6758H174.164L175.621 31.5141L172.397 24.1447H173.847C173.986 24.1447 174.092 24.1782 174.164 24.2454C174.242 24.3074 174.299 24.3823 174.335 24.4701L176.218 28.9569C176.264 29.0861 176.306 29.2152 176.342 29.3444C176.383 29.4683 176.422 29.5975 176.458 29.7318C176.499 29.5975 176.541 29.4658 176.582 29.3366C176.623 29.2075 176.67 29.0783 176.721 28.9492L178.527 24.4701C178.563 24.3771 178.623 24.2996 178.705 24.2376C178.793 24.1757 178.889 24.1447 178.992 24.1447L180.325 24.1447ZM186.366 27.2056C186.366 26.9266 186.325 26.6683 186.242 26.4307C186.165 26.1879 186.049 25.9786 185.894 25.803C185.739 25.6222 185.545 25.4827 185.312 25.3845C185.085 25.2812 184.822 25.2295 184.522 25.2295C183.918 25.2295 183.442 25.4026 183.096 25.7487C182.75 26.0949 182.53 26.5805 182.437 27.2056H186.366ZM182.391 28.2285C182.412 28.6779 182.481 29.068 182.6 29.3986C182.719 29.7241 182.877 29.9953 183.073 30.2123C183.274 30.4292 183.512 30.592 183.786 30.7005C184.065 30.8038 184.375 30.8555 184.716 30.8555C185.041 30.8555 185.323 30.8193 185.56 30.747C185.798 30.6695 186.005 30.5868 186.18 30.499C186.356 30.406 186.506 30.3233 186.63 30.251C186.754 30.1735 186.867 30.1348 186.971 30.1348C187.105 30.1348 187.208 30.1864 187.281 30.2898L187.753 30.9019C187.557 31.1344 187.335 31.3307 187.087 31.4909C186.839 31.651 186.576 31.7828 186.297 31.8861C186.018 31.9843 185.731 32.054 185.436 32.0953C185.142 32.1418 184.855 32.1651 184.576 32.1651C184.029 32.1651 183.52 32.0747 183.05 31.8938C182.585 31.7079 182.179 31.4366 181.833 31.0802C181.492 30.7237 181.223 30.282 181.027 29.7551C180.836 29.2281 180.74 28.6211 180.74 27.934C180.74 27.3864 180.826 26.875 180.996 26.3997C181.172 25.9244 181.42 25.5111 181.74 25.1598C182.066 24.8085 182.458 24.5321 182.918 24.3306C183.383 24.124 183.907 24.0207 184.491 24.0207C184.977 24.0207 185.426 24.1007 185.839 24.2609C186.253 24.4159 186.609 24.6458 186.909 24.9506C187.208 25.2554 187.441 25.6299 187.606 26.0742C187.777 26.5133 187.862 27.0144 187.862 27.5775C187.862 27.8359 187.833 28.0089 187.777 28.0967C187.72 28.1846 187.617 28.2285 187.467 28.2285H182.391ZM193.639 28.5927C193.045 28.6134 192.544 28.6624 192.136 28.7399C191.727 28.8123 191.397 28.9078 191.144 29.0266C190.891 29.1403 190.707 29.2772 190.593 29.4374C190.485 29.5975 190.431 29.7732 190.431 29.9643C190.431 30.1503 190.459 30.3104 190.516 30.4447C190.578 30.5739 190.661 30.6824 190.764 30.7702C190.872 30.8529 190.996 30.9149 191.136 30.9562C191.281 30.9924 191.438 31.0104 191.609 31.0104C192.043 31.0104 192.415 30.9304 192.725 30.7702C193.04 30.6049 193.344 30.3673 193.639 30.0573V28.5927ZM189.222 25.245C190.116 24.4133 191.18 23.9974 192.415 23.9974C192.869 23.9974 193.272 24.0723 193.623 24.2222C193.98 24.3668 194.277 24.5734 194.515 24.8421C194.757 25.1107 194.941 25.431 195.065 25.803C195.194 26.1698 195.258 26.5779 195.258 27.0274V32.0488H194.515C194.354 32.0488 194.233 32.0256 194.15 31.9791C194.068 31.9274 193.998 31.8267 193.941 31.6769L193.778 31.0337C193.577 31.2145 193.378 31.3772 193.182 31.5219C192.985 31.6614 192.781 31.7802 192.57 31.8783C192.363 31.9765 192.138 32.0488 191.895 32.0953C191.658 32.147 191.394 32.1728 191.105 32.1728C190.785 32.1728 190.485 32.1289 190.206 32.0411C189.932 31.9533 189.695 31.8215 189.493 31.6459C189.292 31.4651 189.131 31.2429 189.013 30.9794C188.899 30.716 188.842 30.406 188.842 30.0495C188.842 29.7447 188.922 29.4477 189.082 29.1584C189.248 28.8691 189.516 28.6108 189.888 28.3835C190.265 28.151 190.759 27.9598 191.368 27.81C191.983 27.6602 192.74 27.575 193.639 27.5543V27.0274C193.639 26.4591 193.518 26.0355 193.275 25.7565C193.032 25.4775 192.675 25.338 192.205 25.338C191.885 25.338 191.616 25.3794 191.399 25.462C191.182 25.5395 190.994 25.6248 190.834 25.7177C190.674 25.8107 190.531 25.8986 190.408 25.9812C190.284 26.0587 190.152 26.0975 190.012 26.0975C189.899 26.0975 189.8 26.069 189.718 26.0122C189.64 25.9502 189.576 25.8753 189.524 25.7875L189.222 25.245ZM198.783 25.6093C199.031 25.1081 199.331 24.7155 199.682 24.4314C200.033 24.1421 200.455 23.9974 200.945 23.9974C201.116 23.9974 201.276 24.0181 201.426 24.0594C201.576 24.0956 201.71 24.1524 201.829 24.2299L201.712 25.4853C201.692 25.5731 201.658 25.6351 201.612 25.6712C201.57 25.7022 201.514 25.7177 201.441 25.7177C201.364 25.7177 201.253 25.7048 201.108 25.679C200.963 25.648 200.811 25.6325 200.651 25.6325C200.418 25.6325 200.212 25.6661 200.031 25.7332C199.855 25.8004 199.695 25.8986 199.55 26.0277C199.411 26.1569 199.287 26.3144 199.179 26.5004C199.07 26.6864 198.969 26.8982 198.876 27.1358V32.0488H197.21V24.1447L198.179 24.1447C198.355 24.1447 198.476 24.1782 198.543 24.2454C198.61 24.3074 198.657 24.4185 198.683 24.5786L198.783 25.6093Z" fill="#828282"/>
<path d="M288.27 30.9982L292.919 26.3487L288.27 21.6992" stroke="black" stroke-width="1.54984" stroke-linecap="round" stroke-linejoin="round"/>
<line x1="0.387459" y1="53.8586" x2="274.709" y2="53.8586" stroke="#BDBDBD" stroke-width="0.774919" stroke-linecap="round"/>
<path d="M35.2744 70.6066C35.2434 70.6593 35.2108 70.698 35.1767 70.7228C35.1426 70.7476 35.0992 70.76 35.0466 70.76C34.9908 70.76 34.9272 70.7352 34.8559 70.6856C34.7846 70.6329 34.6947 70.5756 34.5862 70.5136C34.4809 70.4485 34.3538 70.3912 34.205 70.3416C34.0562 70.2889 33.878 70.2625 33.6703 70.2625C33.475 70.2625 33.303 70.2889 33.1542 70.3416C33.0085 70.3912 32.8861 70.4609 32.7869 70.5508C32.6877 70.6376 32.6118 70.7414 32.5591 70.8623C32.5095 70.9801 32.4847 71.1087 32.4847 71.2482C32.4847 71.428 32.5296 71.5768 32.6195 71.6946C32.7125 71.8124 32.8334 71.9131 32.9822 71.9968C33.131 72.0805 33.2999 72.1533 33.489 72.2153C33.678 72.2773 33.8718 72.3424 34.0702 72.4106C34.2685 72.4757 34.4623 72.5516 34.6513 72.6384C34.8404 72.7252 35.0094 72.8353 35.1581 72.9686C35.3069 73.0987 35.4263 73.2599 35.5162 73.4521C35.6091 73.6412 35.6556 73.8737 35.6556 74.1495C35.6556 74.444 35.6045 74.7199 35.5022 74.9771C35.403 75.2344 35.2573 75.4591 35.0651 75.6513C34.873 75.8435 34.6358 75.9954 34.3538 76.107C34.0748 76.2155 33.7571 76.2697 33.4006 76.2697C33.1867 76.2697 32.9791 76.248 32.7776 76.2046C32.5761 76.1643 32.3855 76.107 32.2057 76.0326C32.0259 75.9551 31.857 75.8636 31.6989 75.7583C31.5439 75.6498 31.4044 75.5289 31.2804 75.3956L31.5641 74.9213C31.592 74.8842 31.6245 74.8532 31.6617 74.8284C31.702 74.8036 31.7469 74.7912 31.7965 74.7912C31.8616 74.7912 31.936 74.8253 32.0197 74.8934C32.1065 74.9616 32.2119 75.0376 32.3359 75.1213C32.463 75.2019 32.6133 75.2763 32.7869 75.3445C32.9636 75.4126 33.1774 75.4467 33.4285 75.4467C33.6331 75.4467 33.816 75.4204 33.9772 75.3677C34.1383 75.3119 34.2732 75.2344 34.3817 75.1352C34.4933 75.0329 34.5785 74.9105 34.6374 74.7679C34.6963 74.6253 34.7257 74.4672 34.7257 74.2937C34.7257 74.0984 34.6808 73.9387 34.5909 73.8148C34.501 73.6908 34.3817 73.5869 34.2329 73.5032C34.0841 73.4196 33.9152 73.3483 33.7261 73.2894C33.537 73.2305 33.3433 73.17 33.1449 73.108C32.9465 73.0429 32.7528 72.9686 32.5637 72.8849C32.3746 72.8012 32.2057 72.6927 32.0569 72.5594C31.9081 72.423 31.7888 72.2541 31.6989 72.0526C31.609 71.848 31.5641 71.5969 31.5641 71.2994C31.5641 71.0607 31.6106 70.8298 31.7036 70.6066C31.7965 70.3834 31.9314 70.1866 32.1081 70.0161C32.2878 69.8425 32.5079 69.7046 32.7683 69.6023C33.0287 69.4969 33.3262 69.4442 33.661 69.4442C34.0361 69.4442 34.3801 69.5047 34.6932 69.6256C35.0094 69.7433 35.2837 69.9138 35.5162 70.137L35.2744 70.6066ZM39.7606 75.4002C40.0272 75.4002 40.2659 75.3553 40.4767 75.2654C40.6875 75.1755 40.8657 75.05 41.0114 74.8888C41.1571 74.7245 41.2686 74.5308 41.3461 74.3076C41.4236 74.0813 41.4624 73.8318 41.4624 73.559V69.5186H42.4481V73.559C42.4481 73.9496 42.3861 74.3107 42.2621 74.6424C42.1381 74.974 41.9599 75.2608 41.7274 75.5025C41.4949 75.7443 41.2128 75.9334 40.8812 76.0698C40.5495 76.2062 40.176 76.2744 39.7606 76.2744C39.3453 76.2744 38.9718 76.2062 38.6401 76.0698C38.3085 75.9334 38.0264 75.7443 37.7939 75.5025C37.5614 75.2608 37.3832 74.974 37.2592 74.6424C37.1352 74.3107 37.0732 73.9496 37.0732 73.559V69.5186H38.0636V73.5544C38.0636 73.8272 38.1008 74.0767 38.1752 74.303C38.2527 74.5292 38.3642 74.7245 38.5099 74.8888C38.6556 75.05 38.8338 75.1755 39.0446 75.2654C39.2554 75.3553 39.4941 75.4002 39.7606 75.4002ZM49.7599 69.5186V76.1953H49.2578C49.1803 76.1953 49.1152 76.1814 49.0625 76.1535C49.0129 76.1256 48.9618 76.0806 48.9091 76.0186L45.1383 71.1413C45.1445 71.225 45.1492 71.3071 45.1523 71.3877C45.1585 71.4683 45.1616 71.5443 45.1616 71.6155V76.1953H44.2921V69.5186H44.8036C44.8903 69.5186 44.9554 69.5295 44.9988 69.5512C45.0422 69.5698 45.0903 69.6147 45.143 69.686L48.923 74.568C48.9137 74.4781 48.906 74.3913 48.8998 74.3076C48.8967 74.2208 48.8951 74.1402 48.8951 74.0658V69.5186H49.7599Z" fill="black"/>
<path d="M79.136 69.5186V76.1953H78.2712V71.4435C78.2712 71.3722 78.2727 71.2963 78.2758 71.2157C78.282 71.1351 78.2882 71.053 78.2944 70.9693L76.0719 75.0469C75.9944 75.1988 75.8751 75.2747 75.7139 75.2747H75.5744C75.4133 75.2747 75.2955 75.1988 75.2211 75.0469L72.9568 70.9553C72.9754 71.1289 72.9847 71.2916 72.9847 71.4435V76.1953H72.1152V69.5186H72.8498C72.9366 69.5186 73.0033 69.5279 73.0498 69.5465C73.0993 69.562 73.1458 69.6085 73.1892 69.686L75.421 73.6846C75.4644 73.7652 75.5047 73.8504 75.5419 73.9403C75.5791 74.0302 75.6147 74.1201 75.6488 74.21C75.7139 74.0271 75.7899 73.8504 75.8767 73.6799L78.0666 69.686C78.1069 69.6085 78.1503 69.562 78.1968 69.5465C78.2464 69.5279 78.3145 69.5186 78.4013 69.5186H79.136ZM87.2876 72.857C87.2876 73.356 87.2071 73.8148 87.0459 74.2332C86.8878 74.6486 86.6631 75.0081 86.3717 75.3119C86.0803 75.6126 85.7316 75.8466 85.3256 76.014C84.9195 76.1814 84.4685 76.2651 83.9725 76.2651C83.4797 76.2651 83.0287 76.1814 82.6195 76.014C82.2135 75.8466 81.8648 75.6126 81.5734 75.3119C81.2851 75.0081 81.0604 74.6486 80.8992 74.2332C80.738 73.8148 80.6574 73.356 80.6574 72.857C80.6574 72.361 80.738 71.9038 80.8992 71.4854C81.0604 71.0669 81.2851 70.7073 81.5734 70.4067C81.8648 70.1029 82.2135 69.8673 82.6195 69.6999C83.0287 69.5295 83.4797 69.4442 83.9725 69.4442C84.4685 69.4442 84.9195 69.5295 85.3256 69.6999C85.7316 69.8673 86.0803 70.1029 86.3717 70.4067C86.6631 70.7073 86.8878 71.0669 87.0459 71.4854C87.2071 71.9038 87.2876 72.361 87.2876 72.857ZM86.2741 72.857C86.2741 72.4602 86.2198 72.1037 86.1113 71.7876C86.0028 71.4714 85.8478 71.2033 85.6464 70.9832C85.448 70.7631 85.2062 70.5942 84.921 70.4764C84.639 70.3586 84.3228 70.2997 83.9725 70.2997C83.6223 70.2997 83.3046 70.3586 83.0194 70.4764C82.7373 70.5942 82.4955 70.7631 82.2941 70.9832C82.0926 71.2033 81.9376 71.4714 81.8291 71.7876C81.7206 72.1037 81.6664 72.4602 81.6664 72.857C81.6664 73.2568 81.7206 73.6148 81.8291 73.931C81.9376 74.2441 82.0926 74.5106 82.2941 74.7307C82.4955 74.9508 82.7373 75.1197 83.0194 75.2375C83.3046 75.3522 83.6223 75.4095 83.9725 75.4095C84.3228 75.4095 84.639 75.3522 84.921 75.2375C85.2062 75.1197 85.448 74.9508 85.6464 74.7307C85.8478 74.5106 86.0028 74.2441 86.1113 73.931C86.2198 73.6148 86.2741 73.2568 86.2741 72.857ZM94.278 69.5186V76.1953H93.7759C93.6984 76.1953 93.6333 76.1814 93.5806 76.1535C93.531 76.1256 93.4799 76.0806 93.4272 76.0186L89.6564 71.1413C89.6626 71.225 89.6673 71.3071 89.6704 71.3877C89.6766 71.4683 89.6797 71.5443 89.6797 71.6155V76.1953H88.8102V69.5186H89.3217C89.4085 69.5186 89.4735 69.5295 89.5169 69.5512C89.5603 69.5698 89.6084 69.6147 89.6611 69.686L93.4411 74.568C93.4318 74.4781 93.4241 74.3913 93.4179 74.3076C93.4148 74.2208 93.4132 74.1402 93.4132 74.0658V69.5186H94.278Z" fill="black"/>
<path d="M120.838 70.3462H118.718V76.1953H117.732V70.3462H115.602V69.5186H120.838V70.3462ZM124.681 75.4002C124.947 75.4002 125.186 75.3553 125.397 75.2654C125.608 75.1755 125.786 75.05 125.931 74.8888C126.077 74.7245 126.189 74.5308 126.266 74.3076C126.344 74.0813 126.382 73.8318 126.382 73.559V69.5186H127.368V73.559C127.368 73.9496 127.306 74.3107 127.182 74.6424C127.058 74.974 126.88 75.2608 126.648 75.5025C126.415 75.7443 126.133 75.9334 125.801 76.0698C125.47 76.2062 125.096 76.2744 124.681 76.2744C124.265 76.2744 123.892 76.2062 123.56 76.0698C123.229 75.9334 122.946 75.7443 122.714 75.5025C122.482 75.2608 122.303 74.974 122.179 74.6424C122.055 74.3107 121.993 73.9496 121.993 73.559V69.5186H122.984V73.5544C122.984 73.8272 123.021 74.0767 123.095 74.303C123.173 74.5292 123.284 74.7245 123.43 74.8888C123.576 75.05 123.754 75.1755 123.965 75.2654C124.176 75.3553 124.414 75.4002 124.681 75.4002ZM133.355 75.3909L133.35 76.1953L129.212 76.1953V69.5186L133.35 69.5186V70.323L130.207 70.323V72.4385L132.737 72.4385V73.215L130.207 73.215V75.3909H133.355Z" fill="black"/>
<path d="M163.75 69.5186L161.667 76.1953H160.774L159.147 71.2436C159.109 71.1444 159.077 71.0251 159.049 70.8856C159.015 71.0282 158.982 71.1475 158.951 71.2436L157.305 76.1953H156.417L154.334 69.5186H155.162C155.249 69.5186 155.322 69.5403 155.38 69.5837C155.439 69.624 155.478 69.6798 155.497 69.7511L156.812 74.2193C156.837 74.3061 156.859 74.4006 156.878 74.5029C156.899 74.6052 156.921 74.7121 156.943 74.8237C156.964 74.7121 156.986 74.6052 157.008 74.5029C157.033 74.4006 157.06 74.3061 157.091 74.2193L158.598 69.7511C158.616 69.6891 158.655 69.6349 158.714 69.5884C158.776 69.5419 158.849 69.5186 158.933 69.5186H159.216C159.303 69.5186 159.374 69.5403 159.43 69.5837C159.486 69.6271 159.526 69.6829 159.551 69.7511L161.053 74.2193C161.109 74.3898 161.158 74.5835 161.202 74.8005C161.239 74.5866 161.279 74.3929 161.322 74.2193L162.643 69.7511C162.658 69.6891 162.697 69.6349 162.759 69.5884C162.821 69.5419 162.894 69.5186 162.978 69.5186H163.75ZM169.116 75.3909L169.111 76.1953H164.973V69.5186H169.111V70.323H165.968V72.4385H168.497V73.215H165.968V75.3909L169.116 75.3909ZM176.445 72.857C176.445 73.356 176.364 73.8101 176.203 74.2193C176.045 74.6284 175.82 74.9802 175.529 75.2747C175.237 75.5661 174.889 75.7924 174.483 75.9535C174.077 76.1147 173.626 76.1953 173.13 76.1953L170.619 76.1953V69.5186H173.13C173.626 69.5186 174.077 69.5992 174.483 69.7604C174.889 69.9216 175.237 70.1494 175.529 70.4439C175.82 70.7352 176.045 71.087 176.203 71.4993C176.364 71.9085 176.445 72.361 176.445 72.857ZM175.431 72.857C175.431 72.4602 175.377 72.1053 175.268 71.7922C175.16 71.4761 175.005 71.2095 174.803 70.9925C174.605 70.7724 174.363 70.605 174.078 70.4904C173.796 70.3757 173.48 70.3183 173.13 70.3183H171.614V75.3956H173.13C173.48 75.3956 173.796 75.3383 174.078 75.2236C174.363 75.1089 174.605 74.943 174.803 74.7261C175.005 74.506 175.16 74.2394 175.268 73.9264C175.377 73.6133 175.431 73.2568 175.431 72.857Z" fill="black"/>
<path d="M202.979 70.3462H200.859V76.1953H199.873V70.3462H197.743V69.5186H202.979V70.3462ZM209.686 69.5186V76.1953H208.696V73.1871H205.213V76.1953H204.218V69.5186H205.213V72.4664H208.696V69.5186H209.686ZM214.22 75.4002C214.487 75.4002 214.726 75.3553 214.936 75.2654C215.147 75.1755 215.325 75.05 215.471 74.8888C215.617 74.7245 215.728 74.5308 215.806 74.3076C215.883 74.0813 215.922 73.8318 215.922 73.559V69.5186H216.908V73.559C216.908 73.9496 216.846 74.3107 216.722 74.6424C216.598 74.974 216.42 75.2608 216.187 75.5025C215.955 75.7443 215.673 75.9334 215.341 76.0698C215.009 76.2062 214.636 76.2744 214.22 76.2744C213.805 76.2744 213.432 76.2062 213.1 76.0698C212.768 75.9334 212.486 75.7443 212.254 75.5025C212.021 75.2608 211.843 74.974 211.719 74.6424C211.595 74.3107 211.533 73.9496 211.533 73.559V69.5186H212.523V73.5544C212.523 73.8272 212.561 74.0767 212.635 74.303C212.712 74.5292 212.824 74.7245 212.97 74.8888C213.115 75.05 213.294 75.1755 213.504 75.2654C213.715 75.3553 213.954 75.4002 214.22 75.4002Z" fill="black"/>
<path d="M239.718 70.323V72.5594H242.396V73.3638H239.718V76.1953H238.723V69.5186H242.861V70.323H239.718ZM246.152 72.7361C246.406 72.7361 246.629 72.7051 246.822 72.6431C247.017 72.5811 247.18 72.4943 247.31 72.3827C247.44 72.268 247.538 72.1332 247.603 71.9782C247.668 71.8201 247.7 71.6465 247.7 71.4575C247.7 71.0731 247.573 70.7833 247.319 70.588C247.068 70.3927 246.69 70.2951 246.185 70.2951H245.25V72.7361H246.152ZM249.267 76.1953H248.384C248.207 76.1953 248.079 76.1256 247.998 75.9861L246.347 73.6706C246.295 73.5931 246.237 73.5389 246.175 73.5079C246.113 73.4738 246.02 73.4567 245.896 73.4567H245.25V76.1953H244.26V69.5186H246.185C246.616 69.5186 246.986 69.5636 247.296 69.6534C247.609 69.7402 247.866 69.8658 248.068 70.0301C248.272 70.1912 248.423 70.3865 248.519 70.6159C248.618 70.8453 248.668 71.1025 248.668 71.3877C248.668 71.6202 248.632 71.8387 248.561 72.0433C248.489 72.2479 248.384 72.4323 248.244 72.5966C248.108 72.7578 247.941 72.8973 247.742 73.015C247.544 73.1328 247.319 73.2227 247.068 73.2847C247.192 73.3591 247.299 73.4629 247.389 73.5962L249.267 76.1953ZM251.4 76.1953H250.405V69.5186H251.4V76.1953Z" fill="black"/>
<path d="M277.049 70.6066C277.018 70.6593 276.985 70.698 276.951 70.7228C276.917 70.7476 276.874 70.76 276.821 70.76C276.765 70.76 276.702 70.7352 276.631 70.6856C276.559 70.6329 276.469 70.5756 276.361 70.5136C276.256 70.4485 276.128 70.3912 275.98 70.3416C275.831 70.2889 275.653 70.2625 275.445 70.2625C275.25 70.2625 275.078 70.2889 274.929 70.3416C274.783 70.3912 274.661 70.4609 274.562 70.5508C274.462 70.6376 274.386 70.7414 274.334 70.8623C274.284 70.9801 274.259 71.1087 274.259 71.2482C274.259 71.428 274.304 71.5768 274.394 71.6946C274.487 71.8124 274.608 71.9131 274.757 71.9968C274.906 72.0805 275.075 72.1533 275.264 72.2153C275.453 72.2773 275.646 72.3424 275.845 72.4106C276.043 72.4757 276.237 72.5516 276.426 72.6384C276.615 72.7252 276.784 72.8353 276.933 72.9686C277.082 73.0987 277.201 73.2599 277.291 73.4521C277.384 73.6412 277.43 73.8737 277.43 74.1495C277.43 74.444 277.379 74.7199 277.277 74.9771C277.178 75.2344 277.032 75.4591 276.84 75.6513C276.648 75.8435 276.411 75.9954 276.128 76.107C275.849 76.2155 275.532 76.2697 275.175 76.2697C274.961 76.2697 274.754 76.248 274.552 76.2046C274.351 76.1643 274.16 76.107 273.98 76.0326C273.801 75.9551 273.632 75.8636 273.474 75.7583C273.319 75.6498 273.179 75.5289 273.055 75.3956L273.339 74.9213C273.367 74.8842 273.399 74.8532 273.436 74.8284C273.477 74.8036 273.522 74.7912 273.571 74.7912C273.636 74.7912 273.711 74.8253 273.794 74.8934C273.881 74.9616 273.987 75.0376 274.111 75.1213C274.238 75.2019 274.388 75.2763 274.562 75.3445C274.738 75.4126 274.952 75.4467 275.203 75.4467C275.408 75.4467 275.591 75.4204 275.752 75.3677C275.913 75.3119 276.048 75.2344 276.156 75.1352C276.268 75.0329 276.353 74.9105 276.412 74.7679C276.471 74.6253 276.5 74.4672 276.5 74.2937C276.5 74.0984 276.455 73.9387 276.366 73.8148C276.276 73.6908 276.156 73.5869 276.008 73.5032C275.859 73.4196 275.69 73.3483 275.501 73.2894C275.312 73.2305 275.118 73.17 274.92 73.108C274.721 73.0429 274.527 72.9686 274.338 72.8849C274.149 72.8012 273.98 72.6927 273.832 72.5594C273.683 72.423 273.563 72.2541 273.474 72.0526C273.384 71.848 273.339 71.5969 273.339 71.2994C273.339 71.0607 273.385 70.8298 273.478 70.6066C273.571 70.3834 273.706 70.1866 273.883 70.0161C274.062 69.8425 274.283 69.7046 274.543 69.6023C274.803 69.4969 275.101 69.4442 275.436 69.4442C275.811 69.4442 276.155 69.5047 276.468 69.6256C276.784 69.7433 277.058 69.9138 277.291 70.137L277.049 70.6066ZM282.352 73.7078L281.362 71.118C281.29 70.9414 281.219 70.7182 281.148 70.4485C281.114 70.5818 281.078 70.7058 281.041 70.8205C281.007 70.9352 280.973 71.0375 280.939 71.1273L279.953 73.7078H282.352ZM284.309 76.1953H283.547C283.46 76.1953 283.389 76.1736 283.333 76.1302C283.277 76.0868 283.237 76.031 283.212 75.9628L282.622 74.4145H279.679L279.088 75.9628C279.066 76.0217 279.026 76.076 278.967 76.1256C278.908 76.1721 278.837 76.1953 278.753 76.1953H277.991L280.65 69.5186H281.65L284.309 76.1953ZM289.32 70.3462L287.2 70.3462V76.1953H286.214V70.3462H284.085V69.5186L289.32 69.5186V70.3462Z" fill="black"/>
<path d="M44.1526 111.676V112.715H38.7406V111.676H40.8608V105.113C40.8608 104.904 40.8678 104.687 40.8817 104.464L39.18 105.908C39.1149 105.959 39.0498 105.992 38.9847 106.006C38.9196 106.02 38.8568 106.022 38.7964 106.013C38.7406 106.003 38.6895 105.985 38.643 105.957C38.6011 105.924 38.5662 105.892 38.5384 105.859L38.1129 105.266L41.1119 102.679H42.2208V111.676H44.1526Z" fill="black"/>
<path d="M84.1975 111.425C84.3462 111.425 84.4625 111.469 84.5462 111.557C84.6299 111.641 84.6717 111.752 84.6717 111.892V112.715H77.9485V112.248C77.9485 112.155 77.9671 112.057 78.0043 111.955C78.0415 111.848 78.1043 111.752 78.1926 111.669L81.3589 108.495C81.624 108.23 81.8634 107.975 82.0773 107.728C82.2912 107.482 82.4725 107.238 82.6213 106.996C82.7701 106.75 82.884 106.498 82.963 106.243C83.0467 105.987 83.0886 105.717 83.0886 105.434C83.0886 105.155 83.0444 104.911 82.956 104.701C82.8677 104.488 82.7468 104.311 82.5934 104.171C82.4399 104.032 82.2586 103.927 82.0494 103.858C81.8402 103.788 81.6147 103.753 81.3729 103.753C81.1311 103.753 80.9079 103.788 80.7034 103.858C80.5034 103.927 80.3244 104.025 80.1663 104.15C80.0083 104.276 79.8757 104.425 79.7688 104.597C79.6619 104.769 79.5851 104.955 79.5387 105.155C79.4736 105.331 79.3899 105.45 79.2876 105.51C79.1899 105.571 79.0458 105.585 78.8552 105.552L78.1438 105.427C78.2089 104.962 78.3368 104.553 78.5274 104.199C78.718 103.846 78.9575 103.551 79.2457 103.314C79.534 103.072 79.8641 102.89 80.2361 102.77C80.6127 102.649 81.0172 102.588 81.4496 102.588C81.8867 102.588 82.2888 102.653 82.6562 102.783C83.0281 102.909 83.3489 103.093 83.6186 103.334C83.8883 103.576 84.0998 103.871 84.2533 104.22C84.4067 104.564 84.4834 104.955 84.4834 105.392C84.4834 105.764 84.4276 106.11 84.316 106.431C84.2091 106.747 84.0603 107.049 83.8697 107.338C83.6837 107.626 83.4652 107.907 83.2141 108.182C82.9677 108.451 82.705 108.726 82.426 109.005L79.8874 111.599C80.0826 111.548 80.2779 111.506 80.4732 111.473C80.6731 111.441 80.8614 111.425 81.0381 111.425H84.1975Z" fill="black"/>
<path d="M118.481 105.427C118.551 104.962 118.681 104.553 118.872 104.199C119.062 103.846 119.302 103.551 119.59 103.314C119.878 103.072 120.209 102.89 120.581 102.77C120.957 102.649 121.362 102.588 121.794 102.588C122.226 102.588 122.624 102.651 122.987 102.777C123.349 102.897 123.659 103.072 123.914 103.3C124.175 103.523 124.377 103.792 124.521 104.109C124.665 104.425 124.737 104.773 124.737 105.155C124.737 105.476 124.698 105.759 124.619 106.006C124.54 106.252 124.426 106.468 124.277 106.654C124.133 106.84 123.956 106.998 123.747 107.128C123.538 107.254 123.303 107.359 123.042 107.442C123.679 107.619 124.158 107.907 124.479 108.307C124.8 108.702 124.96 109.204 124.96 109.814C124.96 110.283 124.872 110.706 124.695 111.083C124.519 111.455 124.277 111.771 123.97 112.031C123.663 112.287 123.305 112.485 122.896 112.624C122.492 112.759 122.059 112.826 121.599 112.826C121.073 112.826 120.622 112.764 120.246 112.638C119.869 112.508 119.548 112.329 119.283 112.101C119.018 111.869 118.797 111.592 118.621 111.271C118.449 110.946 118.302 110.59 118.181 110.204L118.774 109.953C118.928 109.888 119.076 109.869 119.221 109.897C119.365 109.925 119.469 110.007 119.534 110.141C119.604 110.281 119.683 110.439 119.772 110.616C119.865 110.788 119.988 110.953 120.141 111.111C120.295 111.264 120.485 111.394 120.713 111.501C120.946 111.608 121.236 111.662 121.585 111.662C121.92 111.662 122.213 111.608 122.464 111.501C122.715 111.39 122.924 111.248 123.091 111.076C123.259 110.899 123.384 110.704 123.468 110.49C123.552 110.276 123.593 110.065 123.593 109.855C123.593 109.595 123.561 109.356 123.496 109.137C123.431 108.919 123.305 108.733 123.119 108.579C122.938 108.421 122.684 108.298 122.359 108.209C122.034 108.121 121.61 108.077 121.09 108.077V107.087C121.517 107.082 121.878 107.038 122.171 106.954C122.468 106.87 122.708 106.754 122.889 106.605C123.07 106.457 123.201 106.28 123.28 106.075C123.363 105.871 123.405 105.643 123.405 105.392C123.405 105.118 123.363 104.878 123.28 104.674C123.196 104.469 123.077 104.299 122.924 104.164C122.775 104.025 122.596 103.923 122.387 103.858C122.182 103.788 121.959 103.753 121.717 103.753C121.476 103.753 121.252 103.788 121.048 103.858C120.843 103.927 120.662 104.025 120.504 104.15C120.346 104.276 120.213 104.425 120.106 104.597C119.999 104.769 119.923 104.955 119.876 105.155C119.811 105.331 119.727 105.45 119.625 105.51C119.527 105.571 119.386 105.585 119.2 105.552L118.481 105.427Z" fill="black"/>
<path d="M162.975 109.06V105.155C162.975 105.02 162.978 104.878 162.982 104.729C162.992 104.576 163.008 104.418 163.031 104.255L159.523 109.06H162.975ZM165.619 109.06V109.848C165.619 109.927 165.593 109.995 165.542 110.051C165.491 110.106 165.419 110.134 165.326 110.134H164.168V112.715H162.975V110.134H158.582C158.479 110.134 158.393 110.106 158.324 110.051C158.254 109.99 158.207 109.916 158.184 109.827L158.045 109.13L162.885 102.693H164.168V109.06H165.619Z" fill="black"/>
<path d="M200.809 106.438C201.321 106.331 201.784 106.278 202.197 106.278C202.718 106.278 203.178 106.357 203.578 106.515C203.978 106.668 204.313 106.882 204.583 107.156C204.857 107.426 205.061 107.747 205.196 108.119C205.336 108.486 205.405 108.886 205.405 109.318C205.405 109.848 205.312 110.33 205.127 110.762C204.941 111.194 204.685 111.564 204.359 111.871C204.034 112.178 203.648 112.415 203.202 112.582C202.76 112.745 202.283 112.826 201.772 112.826C201.47 112.826 201.181 112.796 200.907 112.736C200.637 112.675 200.384 112.596 200.147 112.499C199.91 112.396 199.689 112.28 199.484 112.15C199.284 112.02 199.105 111.883 198.947 111.738L199.366 111.153C199.454 111.022 199.573 110.957 199.721 110.957C199.819 110.957 199.926 110.995 200.042 111.069C200.163 111.139 200.305 111.218 200.468 111.306C200.63 111.394 200.823 111.476 201.047 111.55C201.27 111.62 201.535 111.655 201.842 111.655C202.181 111.655 202.486 111.601 202.755 111.494C203.03 111.383 203.26 111.227 203.446 111.027C203.636 110.827 203.78 110.588 203.878 110.309C203.98 110.03 204.032 109.721 204.032 109.381C204.032 109.079 203.987 108.807 203.899 108.565C203.811 108.323 203.678 108.116 203.502 107.944C203.325 107.772 203.104 107.642 202.839 107.554C202.574 107.461 202.265 107.414 201.911 107.414C201.419 107.414 200.893 107.503 200.335 107.679L199.477 107.428L200.293 102.7H205.092V103.293C205.092 103.488 205.029 103.648 204.903 103.774C204.782 103.895 204.578 103.955 204.29 103.955H201.242L200.809 106.438Z" fill="black"/>
<path d="M242.535 111.69C242.856 111.69 243.146 111.638 243.407 111.536C243.667 111.429 243.89 111.285 244.076 111.104C244.262 110.922 244.406 110.706 244.509 110.455C244.611 110.204 244.662 109.932 244.662 109.639C244.662 109.318 244.611 109.032 244.509 108.781C244.411 108.526 244.272 108.309 244.09 108.133C243.914 107.956 243.7 107.821 243.449 107.728C243.198 107.635 242.919 107.589 242.612 107.589C242.291 107.589 242.003 107.645 241.747 107.756C241.491 107.863 241.273 108.01 241.091 108.196C240.91 108.377 240.771 108.591 240.673 108.837C240.575 109.084 240.526 109.342 240.526 109.611C240.526 109.918 240.571 110.199 240.659 110.455C240.747 110.711 240.878 110.929 241.05 111.111C241.222 111.292 241.431 111.434 241.677 111.536C241.928 111.638 242.214 111.69 242.535 111.69ZM241.893 106.424C241.814 106.526 241.735 106.626 241.656 106.724C241.582 106.817 241.51 106.91 241.44 107.003C241.663 106.859 241.91 106.747 242.179 106.668C242.454 106.589 242.749 106.55 243.065 106.55C243.46 106.55 243.837 106.615 244.195 106.745C244.553 106.875 244.867 107.066 245.136 107.317C245.411 107.568 245.627 107.879 245.785 108.251C245.943 108.623 246.022 109.051 246.022 109.535C246.022 109.995 245.939 110.427 245.771 110.832C245.604 111.232 245.367 111.58 245.06 111.878C244.758 112.171 244.395 112.403 243.972 112.575C243.549 112.743 243.079 112.826 242.563 112.826C242.052 112.826 241.589 112.745 241.175 112.582C240.766 112.42 240.415 112.189 240.122 111.892C239.834 111.59 239.611 111.227 239.452 110.804C239.294 110.376 239.215 109.902 239.215 109.381C239.215 108.935 239.311 108.465 239.501 107.972C239.697 107.475 240.003 106.945 240.422 106.382L242.926 103.028C242.995 102.935 243.093 102.858 243.219 102.797C243.344 102.732 243.488 102.7 243.651 102.7H244.864L241.893 106.424Z" fill="black"/>
<path d="M286.36 102.7V103.307C286.36 103.483 286.339 103.627 286.297 103.739C286.26 103.846 286.223 103.939 286.185 104.018L282.126 112.234C282.061 112.368 281.971 112.482 281.854 112.575C281.738 112.668 281.582 112.715 281.387 112.715H280.411L284.532 104.618C284.602 104.488 284.672 104.369 284.742 104.262C284.811 104.15 284.888 104.048 284.972 103.955H279.853C279.764 103.955 279.688 103.923 279.623 103.858C279.557 103.792 279.525 103.716 279.525 103.627V102.7H286.36Z" fill="black"/>
<path d="M41.07 150.492C41.3862 150.492 41.6675 150.447 41.9139 150.359C42.1603 150.271 42.3696 150.147 42.5416 149.989C42.7136 149.827 42.8438 149.634 42.9321 149.411C43.0205 149.187 43.0647 148.943 43.0647 148.678C43.0647 148.353 43.0112 148.074 42.9042 147.841C42.7973 147.604 42.6532 147.411 42.4718 147.262C42.2905 147.109 42.079 146.997 41.8372 146.928C41.5954 146.853 41.3397 146.816 41.07 146.816C40.7957 146.816 40.5376 146.853 40.2959 146.928C40.0541 146.997 39.8425 147.109 39.6612 147.262C39.4799 147.411 39.3357 147.604 39.2288 147.841C39.1265 148.074 39.0754 148.353 39.0754 148.678C39.0754 148.943 39.1195 149.187 39.2079 149.411C39.2962 149.634 39.4264 149.827 39.5984 149.989C39.7705 150.147 39.9797 150.271 40.2261 150.359C40.4725 150.447 40.7538 150.492 41.07 150.492ZM41.07 142.38C40.7817 142.38 40.5283 142.425 40.3098 142.513C40.0959 142.597 39.9169 142.713 39.7728 142.862C39.6287 143.01 39.5194 143.182 39.445 143.378C39.3753 143.573 39.3404 143.782 39.3404 144.005C39.3404 144.224 39.3706 144.438 39.4311 144.647C39.4962 144.852 39.5961 145.035 39.731 145.198C39.8704 145.356 40.0494 145.484 40.268 145.582C40.4865 145.679 40.7538 145.728 41.07 145.728C41.3815 145.728 41.6466 145.679 41.8651 145.582C42.0883 145.484 42.2673 145.356 42.4021 145.198C42.5416 145.035 42.6415 144.852 42.702 144.647C42.7671 144.438 42.7996 144.224 42.7996 144.005C42.7996 143.782 42.7624 143.573 42.688 143.378C42.6183 143.182 42.5114 143.01 42.3672 142.862C42.2231 142.713 42.0418 142.597 41.8232 142.513C41.6094 142.425 41.3583 142.38 41.07 142.38ZM42.5695 146.237C43.1925 146.423 43.6644 146.723 43.9853 147.137C44.3107 147.551 44.4735 148.074 44.4735 148.706C44.4735 149.143 44.3898 149.538 44.2224 149.892C44.0596 150.245 43.8272 150.547 43.525 150.798C43.2274 151.045 42.8694 151.235 42.4509 151.37C42.0325 151.505 41.5722 151.573 41.07 151.573C40.5679 151.573 40.1076 151.505 39.6891 151.37C39.2707 151.235 38.9103 151.045 38.6081 150.798C38.3105 150.547 38.0781 150.245 37.9107 149.892C37.7479 149.538 37.6666 149.143 37.6666 148.706C37.6666 148.074 37.827 147.551 38.1478 147.137C38.4733 146.723 38.9475 146.423 39.5705 146.237C39.0544 146.042 38.6662 145.751 38.4058 145.365C38.1455 144.975 38.0153 144.512 38.0153 143.978C38.0153 143.606 38.0874 143.259 38.2315 142.938C38.3803 142.613 38.5872 142.332 38.8522 142.094C39.1219 141.857 39.445 141.671 39.8216 141.537C40.1982 141.402 40.6144 141.334 41.07 141.334C41.5257 141.334 41.9418 141.402 42.3184 141.537C42.695 141.671 43.0158 141.857 43.2809 142.094C43.5505 142.332 43.7574 142.613 43.9016 142.938C44.0503 143.259 44.1247 143.606 44.1247 143.978C44.1247 144.512 43.9946 144.975 43.7342 145.365C43.4738 145.751 43.0856 146.042 42.5695 146.237Z" fill="black"/>
<path d="M79.3782 144.403C79.3782 145.021 79.5456 145.498 79.8804 145.833C80.2152 146.167 80.6801 146.335 81.2752 146.335C81.5961 146.335 81.8797 146.284 82.1261 146.181C82.3725 146.074 82.5794 145.935 82.7468 145.763C82.9188 145.586 83.049 145.384 83.1374 145.156C83.2257 144.924 83.2699 144.682 83.2699 144.431C83.2699 144.129 83.2211 143.857 83.1234 143.615C83.0304 143.368 82.8979 143.162 82.7259 142.994C82.5539 142.822 82.3493 142.692 82.1122 142.604C81.8797 142.511 81.6216 142.464 81.338 142.464C81.0451 142.464 80.7777 142.513 80.536 142.611C80.2942 142.704 80.0873 142.836 79.9153 143.008C79.7432 143.18 79.6107 143.385 79.5177 143.622C79.4247 143.859 79.3782 144.119 79.3782 144.403ZM82.1261 147.5C82.3074 147.262 82.4771 147.03 82.6352 146.802C82.3842 146.993 82.1029 147.137 81.7913 147.235C81.4845 147.332 81.1567 147.381 80.808 147.381C80.4407 147.381 80.0873 147.318 79.7479 147.193C79.4131 147.067 79.1155 146.883 78.8552 146.642C78.5995 146.395 78.3949 146.093 78.2414 145.735C78.088 145.377 78.0113 144.966 78.0113 144.501C78.0113 144.064 78.0927 143.652 78.2554 143.266C78.4181 142.88 78.6459 142.545 78.9389 142.262C79.2364 141.974 79.5898 141.748 79.999 141.585C80.4128 141.418 80.8661 141.334 81.3589 141.334C81.8471 141.334 82.2888 141.413 82.684 141.571C83.0839 141.73 83.4233 141.953 83.7023 142.241C83.9813 142.525 84.1975 142.866 84.3509 143.266C84.5043 143.666 84.581 144.105 84.581 144.584C84.581 144.877 84.5532 145.156 84.4974 145.421C84.4462 145.686 84.3695 145.944 84.2672 146.195C84.1696 146.446 84.0487 146.695 83.9045 146.942C83.7651 147.183 83.6047 147.432 83.4233 147.688L81.0172 151.14C80.9521 151.233 80.8568 151.31 80.7313 151.37C80.6104 151.431 80.4709 151.461 80.3128 151.461H79.0644L82.1261 147.5Z" fill="black"/>
<path d="M120.699 150.422V151.461H115.287V150.422H117.407V143.859C117.407 143.65 117.414 143.434 117.428 143.21L115.726 144.654C115.661 144.705 115.596 144.738 115.531 144.752C115.466 144.766 115.403 144.768 115.342 144.759C115.287 144.749 115.235 144.731 115.189 144.703C115.147 144.67 115.112 144.638 115.084 144.605L114.659 144.012L117.658 141.425H118.767V150.422H120.699ZM129.348 146.453C129.348 147.328 129.252 148.085 129.062 148.727C128.876 149.369 128.618 149.901 128.288 150.324C127.962 150.743 127.576 151.054 127.13 151.259C126.688 151.463 126.212 151.566 125.7 151.566C125.189 151.566 124.71 151.463 124.264 151.259C123.822 151.054 123.438 150.743 123.113 150.324C122.787 149.901 122.532 149.369 122.346 148.727C122.16 148.085 122.067 147.328 122.067 146.453C122.067 145.579 122.16 144.821 122.346 144.18C122.532 143.534 122.787 143.001 123.113 142.583C123.438 142.16 123.822 141.846 124.264 141.641C124.71 141.437 125.189 141.334 125.7 141.334C126.212 141.334 126.688 141.437 127.13 141.641C127.576 141.846 127.962 142.16 128.288 142.583C128.618 143.001 128.876 143.534 129.062 144.18C129.252 144.821 129.348 145.579 129.348 146.453ZM127.939 146.453C127.939 145.7 127.876 145.07 127.751 144.563C127.63 144.057 127.465 143.65 127.255 143.343C127.051 143.031 126.814 142.811 126.544 142.68C126.274 142.55 125.993 142.485 125.7 142.485C125.407 142.485 125.126 142.55 124.856 142.68C124.587 142.811 124.347 143.031 124.138 143.343C123.933 143.65 123.771 144.057 123.65 144.563C123.529 145.07 123.468 145.7 123.468 146.453C123.468 147.207 123.529 147.837 123.65 148.343C123.771 148.85 123.933 149.257 124.138 149.564C124.347 149.871 124.587 150.089 124.856 150.22C125.126 150.35 125.407 150.415 125.7 150.415C125.993 150.415 126.274 150.35 126.544 150.22C126.814 150.089 127.051 149.871 127.255 149.564C127.465 149.257 127.63 148.85 127.751 148.343C127.876 147.837 127.939 147.207 127.939 146.453Z" fill="black"/>
<path d="M160.994 150.422V151.461H155.582V150.422H157.702V143.859C157.702 143.65 157.709 143.434 157.723 143.21L156.022 144.654C155.956 144.705 155.891 144.738 155.826 144.752C155.761 144.766 155.698 144.768 155.638 144.759C155.582 144.749 155.531 144.731 155.485 144.703C155.443 144.67 155.408 144.638 155.38 144.605L154.955 144.012L157.953 141.425H159.062V150.422H160.994ZM169.085 150.422V151.461H163.673V150.422H165.794V143.859C165.794 143.65 165.801 143.434 165.815 143.21L164.113 144.654C164.048 144.705 163.983 144.738 163.918 144.752C163.852 144.766 163.79 144.768 163.729 144.759C163.673 144.749 163.622 144.731 163.576 144.703C163.534 144.67 163.499 144.638 163.471 144.605L163.046 144.012L166.045 141.425H167.154V150.422L169.085 150.422Z" fill="black"/>
<path d="M201.29 150.422V151.461H195.878V150.422H197.998V143.859C197.998 143.65 198.005 143.434 198.019 143.21L196.317 144.654C196.252 144.705 196.187 144.738 196.122 144.752C196.057 144.766 195.994 144.768 195.934 144.759C195.878 144.749 195.827 144.731 195.78 144.703C195.739 144.67 195.704 144.638 195.676 144.605L195.25 144.012L198.249 141.425H199.358V150.422H201.29ZM209.13 150.171C209.279 150.171 209.395 150.215 209.479 150.303C209.563 150.387 209.605 150.498 209.605 150.638V151.461H202.881V150.994C202.881 150.901 202.9 150.803 202.937 150.701C202.974 150.594 203.037 150.498 203.125 150.415L206.292 147.242C206.557 146.976 206.796 146.721 207.01 146.474C207.224 146.228 207.405 145.984 207.554 145.742C207.703 145.496 207.817 145.245 207.896 144.989C207.98 144.733 208.021 144.463 208.021 144.18C208.021 143.901 207.977 143.657 207.889 143.448C207.801 143.234 207.68 143.057 207.526 142.917C207.373 142.778 207.191 142.673 206.982 142.604C206.773 142.534 206.547 142.499 206.306 142.499C206.064 142.499 205.841 142.534 205.636 142.604C205.436 142.673 205.257 142.771 205.099 142.897C204.941 143.022 204.809 143.171 204.702 143.343C204.595 143.515 204.518 143.701 204.471 143.901C204.406 144.078 204.323 144.196 204.22 144.257C204.123 144.317 203.979 144.331 203.788 144.298L203.077 144.173C203.142 143.708 203.27 143.299 203.46 142.945C203.651 142.592 203.89 142.297 204.179 142.06C204.467 141.818 204.797 141.637 205.169 141.516C205.546 141.395 205.95 141.334 206.382 141.334C206.819 141.334 207.222 141.399 207.589 141.53C207.961 141.655 208.282 141.839 208.551 142.081C208.821 142.322 209.033 142.618 209.186 142.966C209.34 143.31 209.416 143.701 209.416 144.138C209.416 144.51 209.36 144.856 209.249 145.177C209.142 145.493 208.993 145.796 208.802 146.084C208.617 146.372 208.398 146.653 208.147 146.928C207.9 147.197 207.638 147.472 207.359 147.751L204.82 150.345C205.015 150.294 205.211 150.252 205.406 150.22C205.606 150.187 205.794 150.171 205.971 150.171H209.13Z" fill="black"/>
<path d="M241.586 150.422V151.461H236.174V150.422H238.294V143.859C238.294 143.65 238.301 143.434 238.315 143.21L236.613 144.654C236.548 144.705 236.483 144.738 236.418 144.752C236.353 144.766 236.29 144.768 236.23 144.759C236.174 144.749 236.123 144.731 236.076 144.703C236.035 144.67 236 144.638 235.972 144.605L235.546 144.012L238.545 141.425H239.654V150.422H241.586ZM243.414 144.173C243.484 143.708 243.614 143.299 243.805 142.945C243.996 142.592 244.235 142.297 244.523 142.06C244.812 141.818 245.142 141.637 245.514 141.516C245.89 141.395 246.295 141.334 246.727 141.334C247.16 141.334 247.557 141.397 247.92 141.523C248.282 141.643 248.592 141.818 248.847 142.046C249.108 142.269 249.31 142.539 249.454 142.855C249.598 143.171 249.67 143.52 249.67 143.901C249.67 144.222 249.631 144.505 249.552 144.752C249.473 144.998 249.359 145.214 249.21 145.4C249.066 145.586 248.889 145.744 248.68 145.875C248.471 146 248.236 146.105 247.976 146.188C248.613 146.365 249.091 146.653 249.412 147.053C249.733 147.448 249.893 147.951 249.893 148.56C249.893 149.029 249.805 149.452 249.628 149.829C249.452 150.201 249.21 150.517 248.903 150.777C248.596 151.033 248.238 151.231 247.829 151.37C247.425 151.505 246.992 151.573 246.532 151.573C246.006 151.573 245.555 151.51 245.179 151.384C244.802 151.254 244.481 151.075 244.216 150.847C243.951 150.615 243.731 150.338 243.554 150.017C243.382 149.692 243.235 149.336 243.114 148.95L243.707 148.699C243.861 148.634 244.01 148.615 244.154 148.643C244.298 148.671 244.402 148.753 244.467 148.887C244.537 149.027 244.616 149.185 244.705 149.362C244.798 149.534 244.921 149.699 245.074 149.857C245.228 150.01 245.418 150.14 245.646 150.247C245.879 150.354 246.169 150.408 246.518 150.408C246.853 150.408 247.146 150.354 247.397 150.247C247.648 150.136 247.857 149.994 248.024 149.822C248.192 149.645 248.317 149.45 248.401 149.236C248.485 149.022 248.527 148.811 248.527 148.601C248.527 148.341 248.494 148.102 248.429 147.883C248.364 147.665 248.238 147.479 248.052 147.325C247.871 147.167 247.618 147.044 247.292 146.956C246.967 146.867 246.543 146.823 246.023 146.823V145.833C246.451 145.828 246.811 145.784 247.104 145.7C247.401 145.617 247.641 145.5 247.822 145.351C248.003 145.203 248.134 145.026 248.213 144.821C248.296 144.617 248.338 144.389 248.338 144.138C248.338 143.864 248.296 143.624 248.213 143.42C248.129 143.215 248.01 143.045 247.857 142.91C247.708 142.771 247.529 142.669 247.32 142.604C247.115 142.534 246.892 142.499 246.65 142.499C246.409 142.499 246.185 142.534 245.981 142.604C245.776 142.673 245.595 142.771 245.437 142.897C245.279 143.022 245.146 143.171 245.039 143.343C244.932 143.515 244.856 143.701 244.809 143.901C244.744 144.078 244.66 144.196 244.558 144.257C244.461 144.317 244.319 144.331 244.133 144.298L243.414 144.173Z" fill="black"/>
<rect x="266.572" y="130.188" width="32.5466" height="32.5466" rx="16.2733" fill="#3D159F"/>
<path d="M281.882 150.422V151.461H276.47V150.422H278.59V143.859C278.59 143.65 278.597 143.434 278.611 143.21L276.909 144.654C276.844 144.705 276.779 144.738 276.714 144.752C276.649 144.766 276.586 144.768 276.525 144.759C276.47 144.749 276.419 144.731 276.372 144.703C276.33 144.67 276.295 144.638 276.267 144.605L275.842 144.012L278.841 141.425H279.95V150.422H281.882ZM287.909 147.806V143.901C287.909 143.766 287.911 143.624 287.916 143.475C287.925 143.322 287.941 143.164 287.964 143.001L284.456 147.806H287.909ZM290.552 147.806V148.595C290.552 148.674 290.526 148.741 290.475 148.797C290.424 148.853 290.352 148.88 290.259 148.88H289.101V151.461H287.909V148.88H283.515C283.412 148.88 283.326 148.853 283.257 148.797C283.187 148.736 283.14 148.662 283.117 148.574L282.978 147.876L287.818 141.439H289.101V147.806H290.552Z" fill="white"/>
<path d="M40.107 189.168V190.207H34.695V189.168H36.8152V182.605C36.8152 182.396 36.8221 182.18 36.8361 181.956L35.1344 183.4C35.0693 183.451 35.0042 183.484 34.9391 183.498C34.874 183.512 34.8112 183.514 34.7508 183.505C34.695 183.495 34.6438 183.477 34.5973 183.449C34.5555 183.416 34.5206 183.384 34.4927 183.351L34.0673 182.759L37.0662 180.171H38.1751V189.168H40.107ZM43.672 183.93C44.1834 183.823 44.646 183.77 45.0598 183.77C45.5806 183.77 46.0409 183.849 46.4407 184.007C46.8406 184.16 47.1754 184.374 47.445 184.649C47.7194 184.918 47.9239 185.239 48.0588 185.611C48.1983 185.978 48.268 186.378 48.268 186.811C48.268 187.341 48.175 187.822 47.989 188.254C47.803 188.687 47.5473 189.056 47.2219 189.363C46.8964 189.67 46.5105 189.907 46.0641 190.075C45.6224 190.237 45.1459 190.319 44.6344 190.319C44.3322 190.319 44.0439 190.288 43.7696 190.228C43.4999 190.168 43.2465 190.088 43.0094 189.991C42.7723 189.889 42.5514 189.772 42.3468 189.642C42.1469 189.512 41.9679 189.375 41.8098 189.231L42.2283 188.645C42.3166 188.515 42.4352 188.45 42.584 188.45C42.6816 188.45 42.7886 188.487 42.9048 188.561C43.0257 188.631 43.1675 188.71 43.3302 188.798C43.493 188.887 43.6859 188.968 43.9091 189.042C44.1323 189.112 44.3973 189.147 44.7042 189.147C45.0436 189.147 45.3481 189.093 45.6178 188.987C45.8921 188.875 46.1223 188.719 46.3082 188.519C46.4989 188.319 46.643 188.08 46.7406 187.801C46.8429 187.522 46.8941 187.213 46.8941 186.873C46.8941 186.571 46.8499 186.299 46.7616 186.057C46.6732 185.816 46.5407 185.609 46.364 185.437C46.1873 185.265 45.9665 185.134 45.7015 185.046C45.4364 184.953 45.1273 184.907 44.7739 184.907C44.281 184.907 43.7556 184.995 43.1977 185.172L42.3399 184.921L43.1559 180.192H47.9542V180.785C47.9542 180.98 47.8914 181.14 47.7659 181.266C47.645 181.387 47.4404 181.447 47.1521 181.447H44.1044L43.672 183.93Z" fill="black"/>
<rect x="65.0933" y="168.934" width="32.5466" height="32.5466" rx="16.2733" fill="#3D159F"/>
<path d="M80.4029 189.168V190.207H74.9909V189.168H77.1111V182.605C77.1111 182.396 77.118 182.18 77.132 181.956L75.4303 183.4C75.3652 183.451 75.3001 183.484 75.235 183.498C75.1699 183.512 75.1071 183.514 75.0467 183.505C74.9909 183.495 74.9397 183.477 74.8932 183.449C74.8514 183.416 74.8165 183.384 74.7886 183.351L74.3632 182.759L77.3621 180.171H78.471V189.168H80.4029ZM85.3976 189.182C85.7184 189.182 86.009 189.131 86.2694 189.028C86.5297 188.921 86.7529 188.777 86.9389 188.596C87.1249 188.415 87.269 188.198 87.3713 187.947C87.4736 187.696 87.5247 187.424 87.5247 187.131C87.5247 186.811 87.4736 186.525 87.3713 186.274C87.2737 186.018 87.1342 185.802 86.9528 185.625C86.7762 185.448 86.5623 185.313 86.3112 185.22C86.0601 185.127 85.7812 185.081 85.4743 185.081C85.1535 185.081 84.8652 185.137 84.6095 185.248C84.3538 185.355 84.1352 185.502 83.9539 185.688C83.7726 185.869 83.6331 186.083 83.5355 186.329C83.4378 186.576 83.389 186.834 83.389 187.103C83.389 187.41 83.4332 187.692 83.5215 187.947C83.6098 188.203 83.74 188.422 83.9121 188.603C84.0841 188.784 84.2933 188.926 84.5397 189.028C84.7908 189.131 85.0768 189.182 85.3976 189.182ZM84.7559 183.916C84.6769 184.019 84.5979 184.118 84.5188 184.216C84.4444 184.309 84.3724 184.402 84.3026 184.495C84.5258 184.351 84.7722 184.239 85.0419 184.16C85.3162 184.081 85.6115 184.042 85.9276 184.042C86.3228 184.042 86.6994 184.107 87.0575 184.237C87.4155 184.367 87.7293 184.558 87.999 184.809C88.2733 185.06 88.4895 185.372 88.6476 185.743C88.8057 186.115 88.8847 186.543 88.8847 187.027C88.8847 187.487 88.801 187.919 88.6336 188.324C88.4663 188.724 88.2291 189.073 87.9223 189.37C87.62 189.663 87.2574 189.896 86.8343 190.068C86.4112 190.235 85.9416 190.319 85.4255 190.319C84.914 190.319 84.4514 190.237 84.0376 190.075C83.6284 189.912 83.2774 189.682 82.9845 189.384C82.6962 189.082 82.473 188.719 82.315 188.296C82.1569 187.868 82.0778 187.394 82.0778 186.873C82.0778 186.427 82.1731 185.957 82.3638 185.465C82.5591 184.967 82.8659 184.437 83.2844 183.874L85.7881 180.52C85.8579 180.427 85.9555 180.35 86.0811 180.29C86.2066 180.225 86.3507 180.192 86.5135 180.192H87.727L84.7559 183.916Z" fill="white"/>
<path d="M120.699 189.168V190.207H115.287V189.168H117.407V182.605C117.407 182.396 117.414 182.18 117.428 181.956L115.726 183.4C115.661 183.451 115.596 183.484 115.531 183.498C115.466 183.512 115.403 183.514 115.342 183.505C115.287 183.495 115.235 183.477 115.189 183.449C115.147 183.416 115.112 183.384 115.084 183.351L114.659 182.759L117.658 180.171H118.767V189.168H120.699ZM129.222 180.192V180.799C129.222 180.975 129.201 181.12 129.159 181.231C129.122 181.338 129.085 181.431 129.048 181.51L124.989 189.726C124.924 189.861 124.833 189.975 124.717 190.068C124.601 190.161 124.445 190.207 124.25 190.207H123.273L127.395 182.11C127.465 181.98 127.534 181.861 127.604 181.754C127.674 181.643 127.751 181.54 127.834 181.447H122.715C122.627 181.447 122.55 181.415 122.485 181.35C122.42 181.285 122.387 181.208 122.387 181.12V180.192H129.222Z" fill="black"/>
<path d="M160.994 189.168V190.207H155.582V189.168H157.702V182.605C157.702 182.396 157.709 182.18 157.723 181.956L156.022 183.4C155.956 183.451 155.891 183.484 155.826 183.498C155.761 183.512 155.698 183.514 155.638 183.505C155.582 183.495 155.531 183.477 155.485 183.449C155.443 183.416 155.408 183.384 155.38 183.351L154.955 182.759L157.953 180.171H159.062V189.168H160.994ZM166.003 189.238C166.319 189.238 166.6 189.193 166.847 189.105C167.093 189.017 167.302 188.894 167.474 188.735C167.646 188.573 167.777 188.38 167.865 188.157C167.953 187.933 167.997 187.689 167.997 187.424C167.997 187.099 167.944 186.82 167.837 186.587C167.73 186.35 167.586 186.157 167.405 186.009C167.223 185.855 167.012 185.743 166.77 185.674C166.528 185.599 166.273 185.562 166.003 185.562C165.729 185.562 165.47 185.599 165.229 185.674C164.987 185.743 164.775 185.855 164.594 186.009C164.413 186.157 164.269 186.35 164.162 186.587C164.059 186.82 164.008 187.099 164.008 187.424C164.008 187.689 164.052 187.933 164.141 188.157C164.229 188.38 164.359 188.573 164.531 188.735C164.703 188.894 164.913 189.017 165.159 189.105C165.405 189.193 165.687 189.238 166.003 189.238ZM166.003 181.127C165.715 181.127 165.461 181.171 165.243 181.259C165.029 181.343 164.85 181.459 164.706 181.608C164.561 181.757 164.452 181.929 164.378 182.124C164.308 182.319 164.273 182.528 164.273 182.752C164.273 182.97 164.303 183.184 164.364 183.393C164.429 183.598 164.529 183.781 164.664 183.944C164.803 184.102 164.982 184.23 165.201 184.328C165.419 184.425 165.687 184.474 166.003 184.474C166.314 184.474 166.579 184.425 166.798 184.328C167.021 184.23 167.2 184.102 167.335 183.944C167.474 183.781 167.574 183.598 167.635 183.393C167.7 183.184 167.732 182.97 167.732 182.752C167.732 182.528 167.695 182.319 167.621 182.124C167.551 181.929 167.444 181.757 167.3 181.608C167.156 181.459 166.975 181.343 166.756 181.259C166.542 181.171 166.291 181.127 166.003 181.127ZM167.502 184.983C168.125 185.169 168.597 185.469 168.918 185.883C169.244 186.297 169.406 186.82 169.406 187.452C169.406 187.889 169.323 188.284 169.155 188.638C168.992 188.991 168.76 189.293 168.458 189.544C168.16 189.791 167.802 189.982 167.384 190.116C166.965 190.251 166.505 190.319 166.003 190.319C165.501 190.319 165.04 190.251 164.622 190.116C164.203 189.982 163.843 189.791 163.541 189.544C163.243 189.293 163.011 188.991 162.843 188.638C162.681 188.284 162.599 187.889 162.599 187.452C162.599 186.82 162.76 186.297 163.081 185.883C163.406 185.469 163.88 185.169 164.503 184.983C163.987 184.788 163.599 184.497 163.339 184.112C163.078 183.721 162.948 183.258 162.948 182.724C162.948 182.352 163.02 182.005 163.164 181.684C163.313 181.359 163.52 181.078 163.785 180.841C164.055 180.603 164.378 180.417 164.754 180.283C165.131 180.148 165.547 180.08 166.003 180.08C166.458 180.08 166.875 180.148 167.251 180.283C167.628 180.417 167.949 180.603 168.214 180.841C168.483 181.078 168.69 181.359 168.834 181.684C168.983 182.005 169.058 182.352 169.058 182.724C169.058 183.258 168.927 183.721 168.667 184.112C168.407 184.497 168.018 184.788 167.502 184.983Z" fill="black"/>
<path d="M201.29 189.168V190.207H195.878V189.168H197.998V182.605C197.998 182.396 198.005 182.18 198.019 181.956L196.317 183.4C196.252 183.451 196.187 183.484 196.122 183.498C196.057 183.512 195.994 183.514 195.934 183.505C195.878 183.495 195.827 183.477 195.78 183.449C195.739 183.416 195.704 183.384 195.676 183.351L195.25 182.759L198.249 180.171H199.358V189.168H201.29ZM204.311 183.149C204.311 183.767 204.478 184.244 204.813 184.579C205.148 184.914 205.613 185.081 206.208 185.081C206.529 185.081 206.813 185.03 207.059 184.928C207.305 184.821 207.512 184.681 207.68 184.509C207.852 184.332 207.982 184.13 208.07 183.902C208.159 183.67 208.203 183.428 208.203 183.177C208.203 182.875 208.154 182.603 208.056 182.361C207.963 182.115 207.831 181.908 207.659 181.74C207.487 181.568 207.282 181.438 207.045 181.35C206.813 181.257 206.554 181.21 206.271 181.21C205.978 181.21 205.711 181.259 205.469 181.357C205.227 181.45 205.02 181.582 204.848 181.754C204.676 181.926 204.544 182.131 204.451 182.368C204.358 182.605 204.311 182.865 204.311 183.149ZM207.059 186.246C207.24 186.009 207.41 185.776 207.568 185.548C207.317 185.739 207.036 185.883 206.724 185.981C206.417 186.078 206.09 186.127 205.741 186.127C205.373 186.127 205.02 186.064 204.681 185.939C204.346 185.813 204.048 185.63 203.788 185.388C203.532 185.141 203.328 184.839 203.174 184.481C203.021 184.123 202.944 183.712 202.944 183.247C202.944 182.81 203.025 182.398 203.188 182.012C203.351 181.626 203.579 181.292 203.872 181.008C204.169 180.72 204.523 180.494 204.932 180.331C205.346 180.164 205.799 180.08 206.292 180.08C206.78 180.08 207.222 180.159 207.617 180.318C208.017 180.476 208.356 180.699 208.635 180.987C208.914 181.271 209.13 181.612 209.284 182.012C209.437 182.412 209.514 182.852 209.514 183.33C209.514 183.623 209.486 183.902 209.43 184.167C209.379 184.432 209.302 184.69 209.2 184.941C209.102 185.193 208.982 185.441 208.837 185.688C208.698 185.929 208.537 186.178 208.356 186.434L205.95 189.886C205.885 189.979 205.79 190.056 205.664 190.116C205.543 190.177 205.404 190.207 205.246 190.207H203.997L207.059 186.246Z" fill="black"/>
<path d="M241.335 188.917C241.484 188.917 241.6 188.961 241.684 189.049C241.767 189.133 241.809 189.245 241.809 189.384V190.207H235.086V189.74C235.086 189.647 235.105 189.549 235.142 189.447C235.179 189.34 235.242 189.245 235.33 189.161L238.496 185.988C238.761 185.723 239.001 185.467 239.215 185.22C239.429 184.974 239.61 184.73 239.759 184.488C239.908 184.242 240.021 183.991 240.101 183.735C240.184 183.479 240.226 183.21 240.226 182.926C240.226 182.647 240.182 182.403 240.094 182.194C240.005 181.98 239.884 181.803 239.731 181.664C239.577 181.524 239.396 181.419 239.187 181.35C238.978 181.28 238.752 181.245 238.51 181.245C238.269 181.245 238.045 181.28 237.841 181.35C237.641 181.419 237.462 181.517 237.304 181.643C237.146 181.768 237.013 181.917 236.906 182.089C236.799 182.261 236.723 182.447 236.676 182.647C236.611 182.824 236.527 182.942 236.425 183.003C236.327 183.063 236.183 183.077 235.993 183.044L235.281 182.919C235.346 182.454 235.474 182.045 235.665 181.691C235.855 181.338 236.095 181.043 236.383 180.806C236.671 180.564 237.002 180.383 237.374 180.262C237.75 180.141 238.155 180.08 238.587 180.08C239.024 180.08 239.426 180.145 239.794 180.276C240.166 180.401 240.486 180.585 240.756 180.827C241.026 181.068 241.237 181.364 241.391 181.712C241.544 182.056 241.621 182.447 241.621 182.884C241.621 183.256 241.565 183.602 241.454 183.923C241.347 184.239 241.198 184.542 241.007 184.83C240.821 185.118 240.603 185.399 240.352 185.674C240.105 185.943 239.842 186.218 239.563 186.497L237.025 189.091C237.22 189.04 237.415 188.998 237.611 188.966C237.811 188.933 237.999 188.917 238.176 188.917H241.335ZM250.235 185.2C250.235 186.074 250.14 186.831 249.949 187.473C249.763 188.115 249.505 188.647 249.175 189.07C248.85 189.489 248.464 189.8 248.017 190.005C247.576 190.209 247.099 190.312 246.588 190.312C246.076 190.312 245.597 190.209 245.151 190.005C244.709 189.8 244.326 189.489 244 189.07C243.675 188.647 243.419 188.115 243.233 187.473C243.047 186.831 242.954 186.074 242.954 185.2C242.954 184.325 243.047 183.568 243.233 182.926C243.419 182.28 243.675 181.747 244 181.329C244.326 180.906 244.709 180.592 245.151 180.387C245.597 180.183 246.076 180.08 246.588 180.08C247.099 180.08 247.576 180.183 248.017 180.387C248.464 180.592 248.85 180.906 249.175 181.329C249.505 181.747 249.763 182.28 249.949 182.926C250.14 183.568 250.235 184.325 250.235 185.2ZM248.826 185.2C248.826 184.446 248.764 183.816 248.638 183.309C248.517 182.803 248.352 182.396 248.143 182.089C247.938 181.777 247.701 181.557 247.432 181.426C247.162 181.296 246.881 181.231 246.588 181.231C246.295 181.231 246.013 181.296 245.744 181.426C245.474 181.557 245.235 181.777 245.025 182.089C244.821 182.396 244.658 182.803 244.537 183.309C244.416 183.816 244.356 184.446 244.356 185.2C244.356 185.953 244.416 186.583 244.537 187.09C244.658 187.596 244.821 188.003 245.025 188.31C245.235 188.617 245.474 188.835 245.744 188.966C246.013 189.096 246.295 189.161 246.588 189.161C246.881 189.161 247.162 189.096 247.432 188.966C247.701 188.835 247.938 188.617 248.143 188.31C248.352 188.003 248.517 187.596 248.638 187.09C248.764 186.583 248.826 185.953 248.826 185.2Z" fill="black"/>
<path d="M281.631 188.917C281.779 188.917 281.896 188.961 281.979 189.049C282.063 189.133 282.105 189.245 282.105 189.384V190.207H275.382V189.74C275.382 189.647 275.4 189.549 275.437 189.447C275.475 189.34 275.537 189.245 275.626 189.161L278.792 185.988C279.057 185.723 279.297 185.467 279.51 185.22C279.724 184.974 279.906 184.73 280.054 184.488C280.203 184.242 280.317 183.991 280.396 183.735C280.48 183.479 280.522 183.21 280.522 182.926C280.522 182.647 280.478 182.403 280.389 182.194C280.301 181.98 280.18 181.803 280.027 181.664C279.873 181.524 279.692 181.419 279.483 181.35C279.273 181.28 279.048 181.245 278.806 181.245C278.564 181.245 278.341 181.28 278.136 181.35C277.937 181.419 277.758 181.517 277.599 181.643C277.441 181.768 277.309 181.917 277.202 182.089C277.095 182.261 277.018 182.447 276.972 182.647C276.907 182.824 276.823 182.942 276.721 183.003C276.623 183.063 276.479 183.077 276.288 183.044L275.577 182.919C275.642 182.454 275.77 182.045 275.961 181.691C276.151 181.338 276.391 181.043 276.679 180.806C276.967 180.564 277.297 180.383 277.669 180.262C278.046 180.141 278.45 180.08 278.883 180.08C279.32 180.08 279.722 180.145 280.089 180.276C280.461 180.401 280.782 180.585 281.052 180.827C281.321 181.068 281.533 181.364 281.686 181.712C281.84 182.056 281.917 182.447 281.917 182.884C281.917 183.256 281.861 183.602 281.749 183.923C281.642 184.239 281.493 184.542 281.303 184.83C281.117 185.118 280.898 185.399 280.647 185.674C280.401 185.943 280.138 186.218 279.859 186.497L277.321 189.091C277.516 189.04 277.711 188.998 277.906 188.966C278.106 188.933 278.295 188.917 278.471 188.917H281.631ZM289.973 189.168V190.207H284.561V189.168H286.681L286.681 182.605C286.681 182.396 286.688 182.18 286.702 181.956L285 183.4C284.935 183.451 284.87 183.484 284.805 183.498C284.74 183.512 284.677 183.514 284.617 183.505C284.561 183.495 284.51 183.477 284.463 183.449C284.421 183.416 284.387 183.384 284.359 183.351L283.933 182.759L286.932 180.171H288.041V189.168L289.973 189.168Z" fill="black"/>
<path d="M39.8559 227.663C40.0047 227.663 40.121 227.707 40.2047 227.795C40.2883 227.879 40.3302 227.991 40.3302 228.13V228.953H33.607V228.486C33.607 228.393 33.6256 228.295 33.6628 228.193C33.7 228.086 33.7628 227.991 33.8511 227.907L37.0174 224.734C37.2824 224.469 37.5219 224.213 37.7358 223.967C37.9496 223.72 38.131 223.476 38.2798 223.234C38.4285 222.988 38.5425 222.737 38.6215 222.481C38.7052 222.225 38.747 221.956 38.747 221.672C38.747 221.393 38.7029 221.149 38.6145 220.94C38.5262 220.726 38.4053 220.549 38.2519 220.41C38.0984 220.27 37.9171 220.166 37.7079 220.096C37.4986 220.026 37.2731 219.991 37.0314 219.991C36.7896 219.991 36.5664 220.026 36.3618 220.096C36.1619 220.166 35.9829 220.263 35.8248 220.389C35.6667 220.514 35.5342 220.663 35.4273 220.835C35.3203 221.007 35.2436 221.193 35.1971 221.393C35.132 221.57 35.0483 221.688 34.9461 221.749C34.8484 221.809 34.7043 221.823 34.5137 221.791L33.8023 221.665C33.8674 221.2 33.9952 220.791 34.1859 220.438C34.3765 220.084 34.6159 219.789 34.9042 219.552C35.1925 219.31 35.5226 219.129 35.8946 219.008C36.2712 218.887 36.6757 218.826 37.1081 218.826C37.5451 218.826 37.9473 218.892 38.3146 219.022C38.6866 219.147 39.0074 219.331 39.2771 219.573C39.5468 219.815 39.7583 220.11 39.9117 220.458C40.0652 220.803 40.1419 221.193 40.1419 221.63C40.1419 222.002 40.0861 222.348 39.9745 222.669C39.8676 222.985 39.7188 223.288 39.5282 223.576C39.3422 223.864 39.1236 224.146 38.8726 224.42C38.6261 224.69 38.3635 224.964 38.0845 225.243L35.5458 227.837C35.7411 227.786 35.9364 227.744 36.1317 227.712C36.3316 227.679 36.5199 227.663 36.6966 227.663H39.8559ZM47.9472 227.663C48.096 227.663 48.2122 227.707 48.2959 227.795C48.3796 227.879 48.4214 227.991 48.4214 228.13V228.953H41.6982V228.486C41.6982 228.393 41.7168 228.295 41.754 228.193C41.7912 228.086 41.854 227.991 41.9423 227.907L45.1087 224.734C45.3737 224.469 45.6131 224.213 45.827 223.967C46.0409 223.72 46.2222 223.476 46.371 223.234C46.5198 222.988 46.6337 222.737 46.7127 222.481C46.7964 222.225 46.8383 221.956 46.8383 221.672C46.8383 221.393 46.7941 221.149 46.7058 220.94C46.6174 220.726 46.4965 220.549 46.3431 220.41C46.1897 220.27 46.0083 220.166 45.7991 220.096C45.5899 220.026 45.3644 219.991 45.1226 219.991C44.8808 219.991 44.6577 220.026 44.4531 220.096C44.2531 220.166 44.0741 220.263 43.9161 220.389C43.758 220.514 43.6255 220.663 43.5185 220.835C43.4116 221.007 43.3349 221.193 43.2884 221.393C43.2233 221.57 43.1396 221.688 43.0373 221.749C42.9397 221.809 42.7955 221.823 42.6049 221.791L41.8935 221.665C41.9586 221.2 42.0865 220.791 42.2771 220.438C42.4677 220.084 42.7072 219.789 42.9955 219.552C43.2837 219.31 43.6138 219.129 43.9858 219.008C44.3624 218.887 44.7669 218.826 45.1993 218.826C45.6364 218.826 46.0386 218.892 46.4059 219.022C46.7778 219.147 47.0986 219.331 47.3683 219.573C47.638 219.815 47.8495 220.11 48.003 220.458C48.1564 220.803 48.2331 221.193 48.2331 221.63C48.2331 222.002 48.1773 222.348 48.0657 222.669C47.9588 222.985 47.81 223.288 47.6194 223.576C47.4334 223.864 47.2149 224.146 46.9638 224.42C46.7174 224.69 46.4547 224.964 46.1757 225.243L43.6371 227.837C43.8324 227.786 44.0276 227.744 44.2229 227.712C44.4229 227.679 44.6112 227.663 44.7878 227.663H47.9472Z" fill="black"/>
<path d="M80.1518 227.663C80.3006 227.663 80.4169 227.707 80.5006 227.795C80.5842 227.879 80.6261 227.991 80.6261 228.13V228.953H73.9029V228.486C73.9029 228.393 73.9215 228.295 73.9587 228.193C73.9959 228.086 74.0587 227.991 74.147 227.907L77.3133 224.734C77.5783 224.469 77.8178 224.213 78.0317 223.967C78.2455 223.72 78.4269 223.476 78.5757 223.234C78.7244 222.988 78.8384 222.737 78.9174 222.481C79.0011 222.225 79.0429 221.956 79.0429 221.672C79.0429 221.393 78.9988 221.149 78.9104 220.94C78.8221 220.726 78.7012 220.549 78.5478 220.41C78.3943 220.27 78.213 220.166 78.0038 220.096C77.7945 220.026 77.569 219.991 77.3273 219.991C77.0855 219.991 76.8623 220.026 76.6577 220.096C76.4578 220.166 76.2788 220.263 76.1207 220.389C75.9626 220.514 75.8301 220.663 75.7232 220.835C75.6162 221.007 75.5395 221.193 75.493 221.393C75.4279 221.57 75.3442 221.688 75.242 221.749C75.1443 221.809 75.0002 221.823 74.8096 221.791L74.0982 221.665C74.1633 221.2 74.2911 220.791 74.4818 220.438C74.6724 220.084 74.9118 219.789 75.2001 219.552C75.4884 219.31 75.8185 219.129 76.1905 219.008C76.5671 218.887 76.9716 218.826 77.404 218.826C77.841 218.826 78.2432 218.892 78.6105 219.022C78.9825 219.147 79.3033 219.331 79.573 219.573C79.8427 219.815 80.0542 220.11 80.2076 220.458C80.3611 220.803 80.4378 221.193 80.4378 221.63C80.4378 222.002 80.382 222.348 80.2704 222.669C80.1635 222.985 80.0147 223.288 79.8241 223.576C79.6381 223.864 79.4195 224.146 79.1685 224.42C78.922 224.69 78.6594 224.964 78.3804 225.243L75.8417 227.837C76.037 227.786 76.2323 227.744 76.4276 227.712C76.6275 227.679 76.8158 227.663 76.9925 227.663H80.1518ZM82.2313 221.665C82.301 221.2 82.4312 220.791 82.6218 220.438C82.8125 220.084 83.0519 219.789 83.3402 219.552C83.6284 219.31 83.9586 219.129 84.3305 219.008C84.7071 218.887 85.1116 218.826 85.544 218.826C85.9764 218.826 86.374 218.889 86.7366 219.015C87.0993 219.136 87.4085 219.31 87.6642 219.538C87.9246 219.761 88.1268 220.031 88.271 220.347C88.4151 220.663 88.4872 221.012 88.4872 221.393C88.4872 221.714 88.4477 221.997 88.3686 222.244C88.2896 222.49 88.1757 222.707 88.0269 222.892C87.8827 223.078 87.7061 223.237 87.4968 223.367C87.2876 223.492 87.0528 223.597 86.7924 223.681C87.4294 223.857 87.9083 224.146 88.2291 224.545C88.55 224.941 88.7104 225.443 88.7104 226.052C88.7104 226.521 88.622 226.945 88.4453 227.321C88.2687 227.693 88.0269 228.009 87.72 228.27C87.4131 228.525 87.0551 228.723 86.646 228.862C86.2415 228.997 85.8091 229.065 85.3488 229.065C84.8234 229.065 84.3724 229.002 83.9958 228.876C83.6191 228.746 83.2983 228.567 83.0333 228.339C82.7683 228.107 82.5474 227.83 82.3707 227.509C82.1987 227.184 82.0523 226.828 81.9314 226.442L82.5242 226.191C82.6776 226.126 82.8264 226.108 82.9705 226.136C83.1147 226.163 83.2193 226.245 83.2844 226.38C83.3541 226.519 83.4332 226.677 83.5215 226.854C83.6145 227.026 83.7377 227.191 83.8911 227.349C84.0446 227.502 84.2352 227.633 84.463 227.74C84.6955 227.847 84.9861 227.9 85.3348 227.9C85.6696 227.9 85.9625 227.847 86.2136 227.74C86.4646 227.628 86.6739 227.486 86.8413 227.314C87.0086 227.137 87.1342 226.942 87.2179 226.728C87.3016 226.514 87.3434 226.303 87.3434 226.094C87.3434 225.833 87.3109 225.594 87.2458 225.375C87.1807 225.157 87.0551 224.971 86.8692 224.817C86.6878 224.659 86.4344 224.536 86.109 224.448C85.7835 224.359 85.3604 224.315 84.8396 224.315V223.325C85.2674 223.32 85.6277 223.276 85.9207 223.192C86.2182 223.109 86.4577 222.992 86.639 222.844C86.8203 222.695 86.9505 222.518 87.0296 222.314C87.1133 222.109 87.1551 221.881 87.1551 221.63C87.1551 221.356 87.1133 221.116 87.0296 220.912C86.9459 220.707 86.8273 220.538 86.6739 220.403C86.5251 220.263 86.3461 220.161 86.1369 220.096C85.9323 220.026 85.7091 219.991 85.4673 219.991C85.2255 219.991 85.0024 220.026 84.7978 220.096C84.5932 220.166 84.4119 220.263 84.2538 220.389C84.0957 220.514 83.9632 220.663 83.8563 220.835C83.7493 221.007 83.6726 221.193 83.6261 221.393C83.561 221.57 83.4773 221.688 83.375 221.749C83.2774 221.809 83.1356 221.823 82.9496 221.791L82.2313 221.665Z" fill="black"/>
<path d="M120.447 227.663C120.596 227.663 120.713 227.707 120.796 227.795C120.88 227.879 120.922 227.991 120.922 228.13V228.953H114.199V228.486C114.199 228.393 114.217 228.295 114.254 228.193C114.292 228.086 114.354 227.991 114.443 227.907L117.609 224.734C117.874 224.469 118.113 224.213 118.327 223.967C118.541 223.72 118.723 223.476 118.871 223.234C119.02 222.988 119.134 222.737 119.213 222.481C119.297 222.225 119.339 221.956 119.339 221.672C119.339 221.393 119.294 221.149 119.206 220.94C119.118 220.726 118.997 220.549 118.843 220.41C118.69 220.27 118.509 220.166 118.299 220.096C118.09 220.026 117.865 219.991 117.623 219.991C117.381 219.991 117.158 220.026 116.953 220.096C116.753 220.166 116.574 220.263 116.416 220.389C116.258 220.514 116.126 220.663 116.019 220.835C115.912 221.007 115.835 221.193 115.789 221.393C115.724 221.57 115.64 221.688 115.538 221.749C115.44 221.809 115.296 221.823 115.105 221.791L114.394 221.665C114.459 221.2 114.587 220.791 114.777 220.438C114.968 220.084 115.207 219.789 115.496 219.552C115.784 219.31 116.114 219.129 116.486 219.008C116.863 218.887 117.267 218.826 117.7 218.826C118.137 218.826 118.539 218.892 118.906 219.022C119.278 219.147 119.599 219.331 119.869 219.573C120.138 219.815 120.35 220.11 120.503 220.458C120.657 220.803 120.733 221.193 120.733 221.63C120.733 222.002 120.678 222.348 120.566 222.669C120.459 222.985 120.31 223.288 120.12 223.576C119.934 223.864 119.715 224.146 119.464 224.42C119.218 224.69 118.955 224.964 118.676 225.243L116.137 227.837C116.333 227.786 116.528 227.744 116.723 227.712C116.923 227.679 117.111 227.663 117.288 227.663H120.447ZM126.725 225.299V221.393C126.725 221.258 126.728 221.116 126.732 220.968C126.742 220.814 126.758 220.656 126.781 220.493L123.273 225.299H126.725ZM129.369 225.299V226.087C129.369 226.166 129.343 226.233 129.292 226.289C129.241 226.345 129.169 226.373 129.076 226.373H127.918V228.953H126.725V226.373H122.332C122.229 226.373 122.143 226.345 122.074 226.289C122.004 226.229 121.957 226.154 121.934 226.066L121.795 225.368L126.635 218.931H127.918V225.299H129.369Z" fill="black"/>
<path d="M160.743 227.663C160.892 227.663 161.008 227.707 161.092 227.795C161.176 227.879 161.217 227.991 161.217 228.13V228.953H154.494V228.486C154.494 228.393 154.513 228.295 154.55 228.193C154.587 228.086 154.65 227.991 154.738 227.907L157.905 224.734C158.17 224.469 158.409 224.213 158.623 223.967C158.837 223.72 159.018 223.476 159.167 223.234C159.316 222.988 159.43 222.737 159.509 222.481C159.592 222.225 159.634 221.956 159.634 221.672C159.634 221.393 159.59 221.149 159.502 220.94C159.413 220.726 159.293 220.549 159.139 220.41C158.986 220.27 158.804 220.166 158.595 220.096C158.386 220.026 158.16 219.991 157.919 219.991C157.677 219.991 157.454 220.026 157.249 220.096C157.049 220.166 156.87 220.263 156.712 220.389C156.554 220.514 156.421 220.663 156.314 220.835C156.208 221.007 156.131 221.193 156.084 221.393C156.019 221.57 155.936 221.688 155.833 221.749C155.736 221.809 155.591 221.823 155.401 221.791L154.689 221.665C154.755 221.2 154.882 220.791 155.073 220.438C155.264 220.084 155.503 219.789 155.791 219.552C156.08 219.31 156.41 219.129 156.782 219.008C157.158 218.887 157.563 218.826 157.995 218.826C158.432 218.826 158.835 218.892 159.202 219.022C159.574 219.147 159.895 219.331 160.164 219.573C160.434 219.815 160.646 220.11 160.799 220.458C160.952 220.803 161.029 221.193 161.029 221.63C161.029 222.002 160.973 222.348 160.862 222.669C160.755 222.985 160.606 223.288 160.415 223.576C160.229 223.864 160.011 224.146 159.76 224.42C159.513 224.69 159.251 224.964 158.972 225.243L156.433 227.837C156.628 227.786 156.824 227.744 157.019 227.712C157.219 227.679 157.407 227.663 157.584 227.663H160.743ZM164.559 222.676C165.071 222.569 165.533 222.516 165.947 222.516C166.468 222.516 166.928 222.595 167.328 222.753C167.728 222.906 168.063 223.12 168.332 223.395C168.607 223.664 168.811 223.985 168.946 224.357C169.085 224.724 169.155 225.124 169.155 225.557C169.155 226.087 169.062 226.568 168.876 227C168.69 227.433 168.435 227.802 168.109 228.109C167.784 228.416 167.398 228.653 166.951 228.821C166.51 228.983 166.033 229.065 165.522 229.065C165.219 229.065 164.931 229.034 164.657 228.974C164.387 228.914 164.134 228.835 163.897 228.737C163.659 228.635 163.439 228.518 163.234 228.388C163.034 228.258 162.855 228.121 162.697 227.977L163.115 227.391C163.204 227.261 163.322 227.196 163.471 227.196C163.569 227.196 163.676 227.233 163.792 227.307C163.913 227.377 164.055 227.456 164.217 227.544C164.38 227.633 164.573 227.714 164.796 227.788C165.019 227.858 165.284 227.893 165.591 227.893C165.931 227.893 166.235 227.84 166.505 227.733C166.779 227.621 167.009 227.465 167.195 227.265C167.386 227.065 167.53 226.826 167.628 226.547C167.73 226.268 167.781 225.959 167.781 225.619C167.781 225.317 167.737 225.045 167.649 224.803C167.56 224.562 167.428 224.355 167.251 224.183C167.075 224.011 166.854 223.881 166.589 223.792C166.324 223.699 166.014 223.653 165.661 223.653C165.168 223.653 164.643 223.741 164.085 223.918L163.227 223.667L164.043 218.938H168.841V219.531C168.841 219.726 168.779 219.887 168.653 220.012C168.532 220.133 168.328 220.193 168.039 220.193H164.992L164.559 222.676Z" fill="black"/>
<path d="M201.039 227.663C201.188 227.663 201.304 227.707 201.388 227.795C201.471 227.879 201.513 227.991 201.513 228.13V228.953H194.79V228.486C194.79 228.393 194.809 228.295 194.846 228.193C194.883 228.086 194.946 227.991 195.034 227.907L198.201 224.734C198.466 224.469 198.705 224.213 198.919 223.967C199.133 223.72 199.314 223.476 199.463 223.234C199.612 222.988 199.726 222.737 199.805 222.481C199.888 222.225 199.93 221.956 199.93 221.672C199.93 221.393 199.886 221.149 199.798 220.94C199.709 220.726 199.588 220.549 199.435 220.41C199.282 220.27 199.1 220.166 198.891 220.096C198.682 220.026 198.456 219.991 198.214 219.991C197.973 219.991 197.75 220.026 197.545 220.096C197.345 220.166 197.166 220.263 197.008 220.389C196.85 220.514 196.717 220.663 196.61 220.835C196.503 221.007 196.427 221.193 196.38 221.393C196.315 221.57 196.231 221.688 196.129 221.749C196.032 221.809 195.887 221.823 195.697 221.791L194.985 221.665C195.05 221.2 195.178 220.791 195.369 220.438C195.56 220.084 195.799 219.789 196.087 219.552C196.376 219.31 196.706 219.129 197.078 219.008C197.454 218.887 197.859 218.826 198.291 218.826C198.728 218.826 199.13 218.892 199.498 219.022C199.87 219.147 200.191 219.331 200.46 219.573C200.73 219.815 200.941 220.11 201.095 220.458C201.248 220.803 201.325 221.193 201.325 221.63C201.325 222.002 201.269 222.348 201.158 222.669C201.051 222.985 200.902 223.288 200.711 223.576C200.525 223.864 200.307 224.146 200.056 224.42C199.809 224.69 199.547 224.964 199.268 225.243L196.729 227.837C196.924 227.786 197.12 227.744 197.315 227.712C197.515 227.679 197.703 227.663 197.88 227.663H201.039ZM206.285 227.928C206.606 227.928 206.896 227.877 207.157 227.774C207.417 227.668 207.64 227.523 207.826 227.342C208.012 227.161 208.156 226.945 208.259 226.693C208.361 226.442 208.412 226.17 208.412 225.877C208.412 225.557 208.361 225.271 208.259 225.02C208.161 224.764 208.021 224.548 207.84 224.371C207.663 224.194 207.449 224.06 207.198 223.967C206.947 223.874 206.668 223.827 206.362 223.827C206.041 223.827 205.752 223.883 205.497 223.994C205.241 224.101 205.022 224.248 204.841 224.434C204.66 224.615 204.52 224.829 204.423 225.075C204.325 225.322 204.276 225.58 204.276 225.85C204.276 226.156 204.32 226.438 204.409 226.693C204.497 226.949 204.627 227.168 204.799 227.349C204.971 227.53 205.181 227.672 205.427 227.774C205.678 227.877 205.964 227.928 206.285 227.928ZM205.643 222.662C205.564 222.765 205.485 222.865 205.406 222.962C205.332 223.055 205.26 223.148 205.19 223.241C205.413 223.097 205.659 222.985 205.929 222.906C206.203 222.827 206.499 222.788 206.815 222.788C207.21 222.788 207.587 222.853 207.945 222.983C208.303 223.113 208.617 223.304 208.886 223.555C209.161 223.806 209.377 224.118 209.535 224.49C209.693 224.862 209.772 225.289 209.772 225.773C209.772 226.233 209.688 226.666 209.521 227.07C209.353 227.47 209.116 227.819 208.809 228.116C208.507 228.409 208.145 228.642 207.721 228.814C207.298 228.981 206.829 229.065 206.313 229.065C205.801 229.065 205.339 228.983 204.925 228.821C204.516 228.658 204.165 228.428 203.872 228.13C203.583 227.828 203.36 227.465 203.202 227.042C203.044 226.614 202.965 226.14 202.965 225.619C202.965 225.173 203.06 224.703 203.251 224.211C203.446 223.713 203.753 223.183 204.172 222.62L206.675 219.266C206.745 219.173 206.843 219.096 206.968 219.036C207.094 218.971 207.238 218.938 207.401 218.938H208.614L205.643 222.662Z" fill="black"/>
<path d="M241.335 227.663C241.484 227.663 241.6 227.707 241.684 227.795C241.767 227.879 241.809 227.991 241.809 228.13V228.953H235.086V228.486C235.086 228.393 235.105 228.295 235.142 228.193C235.179 228.086 235.242 227.991 235.33 227.907L238.496 224.734C238.761 224.469 239.001 224.213 239.215 223.967C239.429 223.72 239.61 223.476 239.759 223.234C239.908 222.988 240.021 222.737 240.101 222.481C240.184 222.225 240.226 221.956 240.226 221.672C240.226 221.393 240.182 221.149 240.094 220.94C240.005 220.726 239.884 220.549 239.731 220.41C239.577 220.27 239.396 220.166 239.187 220.096C238.978 220.026 238.752 219.991 238.51 219.991C238.269 219.991 238.045 220.026 237.841 220.096C237.641 220.166 237.462 220.263 237.304 220.389C237.146 220.514 237.013 220.663 236.906 220.835C236.799 221.007 236.723 221.193 236.676 221.393C236.611 221.57 236.527 221.688 236.425 221.749C236.327 221.809 236.183 221.823 235.993 221.791L235.281 221.665C235.346 221.2 235.474 220.791 235.665 220.438C235.855 220.084 236.095 219.789 236.383 219.552C236.671 219.31 237.002 219.129 237.374 219.008C237.75 218.887 238.155 218.826 238.587 218.826C239.024 218.826 239.426 218.892 239.794 219.022C240.166 219.147 240.486 219.331 240.756 219.573C241.026 219.815 241.237 220.11 241.391 220.458C241.544 220.803 241.621 221.193 241.621 221.63C241.621 222.002 241.565 222.348 241.454 222.669C241.347 222.985 241.198 223.288 241.007 223.576C240.821 223.864 240.603 224.146 240.352 224.42C240.105 224.69 239.842 224.964 239.563 225.243L237.025 227.837C237.22 227.786 237.415 227.744 237.611 227.712C237.811 227.679 237.999 227.663 238.176 227.663H241.335ZM250.11 218.938V219.545C250.11 219.722 250.089 219.866 250.047 219.977C250.01 220.084 249.973 220.177 249.935 220.256L245.876 228.472C245.811 228.607 245.721 228.721 245.604 228.814C245.488 228.907 245.332 228.953 245.137 228.953H244.161L248.282 220.856C248.352 220.726 248.422 220.607 248.492 220.5C248.561 220.389 248.638 220.286 248.722 220.193H243.603C243.514 220.193 243.438 220.161 243.373 220.096C243.307 220.031 243.275 219.954 243.275 219.866V218.938H250.11Z" fill="black"/>
<path d="M281.631 227.663C281.779 227.663 281.896 227.707 281.979 227.795C282.063 227.879 282.105 227.991 282.105 228.13V228.953H275.382V228.486C275.382 228.393 275.4 228.295 275.437 228.193C275.475 228.086 275.537 227.991 275.626 227.907L278.792 224.734C279.057 224.469 279.297 224.213 279.51 223.967C279.724 223.72 279.906 223.476 280.054 223.234C280.203 222.988 280.317 222.737 280.396 222.481C280.48 222.225 280.522 221.956 280.522 221.672C280.522 221.393 280.478 221.149 280.389 220.94C280.301 220.726 280.18 220.549 280.027 220.41C279.873 220.27 279.692 220.166 279.483 220.096C279.273 220.026 279.048 219.991 278.806 219.991C278.564 219.991 278.341 220.026 278.136 220.096C277.937 220.166 277.758 220.263 277.599 220.389C277.441 220.514 277.309 220.663 277.202 220.835C277.095 221.007 277.018 221.193 276.972 221.393C276.907 221.57 276.823 221.688 276.721 221.749C276.623 221.809 276.479 221.823 276.288 221.791L275.577 221.665C275.642 221.2 275.77 220.791 275.961 220.438C276.151 220.084 276.391 219.789 276.679 219.552C276.967 219.31 277.297 219.129 277.669 219.008C278.046 218.887 278.45 218.826 278.883 218.826C279.32 218.826 279.722 218.892 280.089 219.022C280.461 219.147 280.782 219.331 281.052 219.573C281.321 219.815 281.533 220.11 281.686 220.458C281.84 220.803 281.917 221.193 281.917 221.63C281.917 222.002 281.861 222.348 281.749 222.669C281.642 222.985 281.493 223.288 281.303 223.576C281.117 223.864 280.898 224.146 280.647 224.42C280.401 224.69 280.138 224.964 279.859 225.243L277.321 227.837C277.516 227.786 277.711 227.744 277.906 227.712C278.106 227.679 278.295 227.663 278.471 227.663H281.631ZM286.89 227.984C287.206 227.984 287.488 227.94 287.734 227.851C287.981 227.763 288.19 227.64 288.362 227.482C288.534 227.319 288.664 227.126 288.752 226.903C288.841 226.68 288.885 226.435 288.885 226.17C288.885 225.845 288.831 225.566 288.725 225.333C288.618 225.096 288.473 224.903 288.292 224.755C288.111 224.601 287.899 224.49 287.657 224.42C287.416 224.345 287.16 224.308 286.89 224.308C286.616 224.308 286.358 224.345 286.116 224.42C285.874 224.49 285.663 224.601 285.481 224.755C285.3 224.903 285.156 225.096 285.049 225.333C284.947 225.566 284.896 225.845 284.896 226.17C284.896 226.435 284.94 226.68 285.028 226.903C285.117 227.126 285.247 227.319 285.419 227.482C285.591 227.64 285.8 227.763 286.046 227.851C286.293 227.94 286.574 227.984 286.89 227.984ZM286.89 219.873C286.602 219.873 286.349 219.917 286.13 220.005C285.916 220.089 285.737 220.205 285.593 220.354C285.449 220.503 285.34 220.675 285.265 220.87C285.196 221.065 285.161 221.274 285.161 221.498C285.161 221.716 285.191 221.93 285.251 222.139C285.316 222.344 285.416 222.527 285.551 222.69C285.691 222.848 285.87 222.976 286.088 223.074C286.307 223.171 286.574 223.22 286.89 223.22C287.202 223.22 287.467 223.171 287.685 223.074C287.909 222.976 288.088 222.848 288.222 222.69C288.362 222.527 288.462 222.344 288.522 222.139C288.587 221.93 288.62 221.716 288.62 221.498C288.62 221.274 288.583 221.065 288.508 220.87C288.439 220.675 288.332 220.503 288.188 220.354C288.043 220.205 287.862 220.089 287.644 220.005C287.43 219.917 287.179 219.873 286.89 219.873ZM288.39 223.729C289.013 223.915 289.485 224.215 289.806 224.629C290.131 225.043 290.294 225.566 290.294 226.198C290.294 226.635 290.21 227.031 290.043 227.384C289.88 227.737 289.647 228.039 289.345 228.291C289.048 228.537 288.69 228.728 288.271 228.862C287.853 228.997 287.392 229.065 286.89 229.065C286.388 229.065 285.928 228.997 285.509 228.862C285.091 228.728 284.731 228.537 284.428 228.291C284.131 228.039 283.898 227.737 283.731 227.384C283.568 227.031 283.487 226.635 283.487 226.198C283.487 225.566 283.647 225.043 283.968 224.629C284.294 224.215 284.768 223.915 285.391 223.729C284.875 223.534 284.486 223.244 284.226 222.858C283.966 222.467 283.836 222.004 283.836 221.47C283.836 221.098 283.908 220.751 284.052 220.431C284.201 220.105 284.407 219.824 284.672 219.587C284.942 219.35 285.265 219.164 285.642 219.029C286.019 218.894 286.435 218.826 286.89 218.826C287.346 218.826 287.762 218.894 288.139 219.029C288.515 219.164 288.836 219.35 289.101 219.587C289.371 219.824 289.578 220.105 289.722 220.431C289.871 220.751 289.945 221.098 289.945 221.47C289.945 222.004 289.815 222.467 289.554 222.858C289.294 223.244 288.906 223.534 288.39 223.729Z" fill="black"/>
<path d="M39.8559 266.409C40.0047 266.409 40.121 266.453 40.2047 266.541C40.2883 266.625 40.3302 266.737 40.3302 266.876V267.699H33.607V267.232C33.607 267.139 33.6256 267.041 33.6628 266.939C33.7 266.832 33.7628 266.737 33.8511 266.653L37.0174 263.48C37.2824 263.215 37.5219 262.959 37.7358 262.713C37.9496 262.466 38.131 262.222 38.2798 261.98C38.4285 261.734 38.5425 261.483 38.6215 261.227C38.7052 260.971 38.747 260.702 38.747 260.418C38.747 260.139 38.7029 259.895 38.6145 259.686C38.5262 259.472 38.4053 259.295 38.2519 259.156C38.0984 259.016 37.9171 258.912 37.7079 258.842C37.4986 258.772 37.2731 258.737 37.0314 258.737C36.7896 258.737 36.5664 258.772 36.3618 258.842C36.1619 258.912 35.9829 259.009 35.8248 259.135C35.6667 259.26 35.5342 259.409 35.4273 259.581C35.3203 259.753 35.2436 259.939 35.1971 260.139C35.132 260.316 35.0483 260.434 34.9461 260.495C34.8484 260.555 34.7043 260.569 34.5137 260.537L33.8023 260.411C33.8674 259.946 33.9952 259.537 34.1859 259.184C34.3765 258.83 34.6159 258.535 34.9042 258.298C35.1925 258.056 35.5226 257.875 35.8946 257.754C36.2712 257.633 36.6757 257.573 37.1081 257.573C37.5451 257.573 37.9473 257.638 38.3146 257.768C38.6866 257.893 39.0074 258.077 39.2771 258.319C39.5468 258.561 39.7583 258.856 39.9117 259.205C40.0652 259.549 40.1419 259.939 40.1419 260.376C40.1419 260.748 40.0861 261.095 39.9745 261.415C39.8676 261.732 39.7188 262.034 39.5282 262.322C39.3422 262.61 39.1236 262.892 38.8726 263.166C38.6261 263.436 38.3635 263.71 38.0845 263.989L35.5458 266.583C35.7411 266.532 35.9364 266.49 36.1317 266.458C36.3316 266.425 36.5199 266.409 36.6966 266.409H39.8559ZM43.128 260.641C43.128 261.26 43.2953 261.736 43.6301 262.071C43.9649 262.406 44.4298 262.573 45.025 262.573C45.3458 262.573 45.6294 262.522 45.8758 262.42C46.1223 262.313 46.3292 262.173 46.4965 262.001C46.6686 261.825 46.7988 261.622 46.8871 261.394C46.9754 261.162 47.0196 260.92 47.0196 260.669C47.0196 260.367 46.9708 260.095 46.8731 259.853C46.7802 259.607 46.6476 259.4 46.4756 259.232C46.3036 259.06 46.099 258.93 45.8619 258.842C45.6294 258.749 45.3714 258.702 45.0877 258.702C44.7948 258.702 44.5275 258.751 44.2857 258.849C44.0439 258.942 43.837 259.074 43.665 259.246C43.493 259.418 43.3604 259.623 43.2675 259.86C43.1745 260.097 43.128 260.358 43.128 260.641ZM45.8758 263.738C46.0572 263.501 46.2269 263.268 46.3849 263.04C46.1339 263.231 45.8526 263.375 45.5411 263.473C45.2342 263.57 44.9064 263.619 44.5577 263.619C44.1904 263.619 43.837 263.557 43.4976 263.431C43.1628 263.305 42.8653 263.122 42.6049 262.88C42.3492 262.634 42.1446 262.331 41.9912 261.973C41.8377 261.615 41.761 261.204 41.761 260.739C41.761 260.302 41.8424 259.89 42.0051 259.504C42.1678 259.119 42.3957 258.784 42.6886 258.5C42.9862 258.212 43.3395 257.986 43.7487 257.824C44.1625 257.656 44.6158 257.573 45.1087 257.573C45.5969 257.573 46.0386 257.652 46.4338 257.81C46.8336 257.968 47.173 258.191 47.452 258.479C47.731 258.763 47.9472 259.105 48.1006 259.504C48.2541 259.904 48.3308 260.344 48.3308 260.823C48.3308 261.116 48.3029 261.394 48.2471 261.66C48.1959 261.925 48.1192 262.183 48.0169 262.434C47.9193 262.685 47.7984 262.933 47.6543 263.18C47.5148 263.422 47.3544 263.67 47.173 263.926L44.7669 267.378C44.7018 267.471 44.6065 267.548 44.481 267.609C44.3601 267.669 44.2206 267.699 44.0625 267.699H42.8141L45.8758 263.738Z" fill="black"/>
<path d="M74.14 260.411C74.2098 259.946 74.34 259.537 74.5306 259.184C74.7212 258.83 74.9607 258.535 75.2489 258.298C75.5372 258.056 75.8673 257.875 76.2393 257.754C76.6159 257.633 77.0204 257.573 77.4528 257.573C77.8852 257.573 78.2827 257.635 78.6454 257.761C79.0081 257.882 79.3173 258.056 79.573 258.284C79.8334 258.507 80.0356 258.777 80.1797 259.093C80.3239 259.409 80.3959 259.758 80.3959 260.139C80.3959 260.46 80.3564 260.744 80.2774 260.99C80.1983 261.236 80.0844 261.453 79.9356 261.639C79.7915 261.825 79.6148 261.983 79.4056 262.113C79.1964 262.238 78.9616 262.343 78.7012 262.427C79.3382 262.603 79.8171 262.892 80.1379 263.291C80.4587 263.687 80.6191 264.189 80.6191 264.798C80.6191 265.268 80.5308 265.691 80.3541 266.067C80.1774 266.439 79.9356 266.755 79.6288 267.016C79.3219 267.271 78.9639 267.469 78.5547 267.609C78.1502 267.743 77.7178 267.811 77.2575 267.811C76.7321 267.811 76.2811 267.748 75.9045 267.623C75.5279 267.492 75.2071 267.313 74.9421 267.085C74.677 266.853 74.4562 266.576 74.2795 266.256C74.1075 265.93 73.961 265.574 73.8401 265.188L74.4329 264.937C74.5864 264.872 74.7352 264.854 74.8793 264.882C75.0234 264.91 75.128 264.991 75.1931 265.126C75.2629 265.265 75.3419 265.423 75.4303 265.6C75.5233 265.772 75.6465 265.937 75.7999 266.095C75.9533 266.249 76.144 266.379 76.3718 266.486C76.6043 266.593 76.8949 266.646 77.2436 266.646C77.5783 266.646 77.8713 266.593 78.1223 266.486C78.3734 266.374 78.5826 266.232 78.75 266.06C78.9174 265.884 79.0429 265.688 79.1266 265.474C79.2103 265.261 79.2522 265.049 79.2522 264.84C79.2522 264.579 79.2196 264.34 79.1545 264.121C79.0894 263.903 78.9639 263.717 78.7779 263.563C78.5966 263.405 78.3432 263.282 78.0177 263.194C77.6923 263.106 77.2691 263.061 76.7484 263.061V262.071C77.1762 262.066 77.5365 262.022 77.8294 261.938C78.127 261.855 78.3664 261.739 78.5478 261.59C78.7291 261.441 78.8593 261.264 78.9383 261.06C79.022 260.855 79.0639 260.627 79.0639 260.376C79.0639 260.102 79.022 259.862 78.9383 259.658C78.8546 259.453 78.7361 259.284 78.5826 259.149C78.4338 259.009 78.2548 258.907 78.0456 258.842C77.841 258.772 77.6179 258.737 77.3761 258.737C77.1343 258.737 76.9111 258.772 76.7066 258.842C76.502 258.912 76.3206 259.009 76.1626 259.135C76.0045 259.26 75.872 259.409 75.765 259.581C75.6581 259.753 75.5814 259.939 75.5349 260.139C75.4698 260.316 75.3861 260.434 75.2838 260.495C75.1862 260.555 75.0444 260.569 74.8584 260.537L74.14 260.411ZM89.0521 262.692C89.0521 263.566 88.9568 264.324 88.7662 264.965C88.5802 265.607 88.3221 266.139 87.992 266.562C87.6665 266.981 87.2806 267.292 86.8343 267.497C86.3926 267.702 85.916 267.804 85.4046 267.804C84.8931 267.804 84.4142 267.702 83.9679 267.497C83.5262 267.292 83.1426 266.981 82.8171 266.562C82.4916 266.139 82.2359 265.607 82.0499 264.965C81.864 264.324 81.771 263.566 81.771 262.692C81.771 261.818 81.864 261.06 82.0499 260.418C82.2359 259.772 82.4916 259.239 82.8171 258.821C83.1426 258.398 83.5262 258.084 83.9679 257.879C84.4142 257.675 84.8931 257.573 85.4046 257.573C85.916 257.573 86.3926 257.675 86.8343 257.879C87.2806 258.084 87.6665 258.398 87.992 258.821C88.3221 259.239 88.5802 259.772 88.7662 260.418C88.9568 261.06 89.0521 261.818 89.0521 262.692ZM87.6433 262.692C87.6433 261.938 87.5805 261.308 87.455 260.802C87.3341 260.295 87.169 259.888 86.9598 259.581C86.7552 259.27 86.5181 259.049 86.2484 258.919C85.9788 258.788 85.6975 258.723 85.4046 258.723C85.1116 258.723 84.8303 258.788 84.5607 258.919C84.291 259.049 84.0515 259.27 83.8423 259.581C83.6377 259.888 83.475 260.295 83.3541 260.802C83.2332 261.308 83.1728 261.938 83.1728 262.692C83.1728 263.445 83.2332 264.075 83.3541 264.582C83.475 265.089 83.6377 265.495 83.8423 265.802C84.0515 266.109 84.291 266.328 84.5607 266.458C84.8303 266.588 85.1116 266.653 85.4046 266.653C85.6975 266.653 85.9788 266.588 86.2484 266.458C86.5181 266.328 86.7552 266.109 86.9598 265.802C87.169 265.495 87.3341 265.089 87.455 264.582C87.5805 264.075 87.6433 263.445 87.6433 262.692Z" fill="black"/>
<path d="M114.436 260.411C114.505 259.946 114.636 259.537 114.826 259.184C115.017 258.83 115.256 258.535 115.545 258.298C115.833 258.056 116.163 257.875 116.535 257.754C116.912 257.633 117.316 257.573 117.748 257.573C118.181 257.573 118.578 257.635 118.941 257.761C119.304 257.882 119.613 258.056 119.869 258.284C120.129 258.507 120.331 258.777 120.475 259.093C120.62 259.409 120.692 259.758 120.692 260.139C120.692 260.46 120.652 260.744 120.573 260.99C120.494 261.236 120.38 261.453 120.231 261.639C120.087 261.825 119.91 261.983 119.701 262.113C119.492 262.238 119.257 262.343 118.997 262.427C119.634 262.603 120.113 262.892 120.434 263.291C120.754 263.687 120.915 264.189 120.915 264.798C120.915 265.268 120.826 265.691 120.65 266.067C120.473 266.439 120.231 266.755 119.924 267.016C119.618 267.271 119.26 267.469 118.85 267.609C118.446 267.743 118.013 267.811 117.553 267.811C117.028 267.811 116.577 267.748 116.2 267.623C115.824 267.492 115.503 267.313 115.238 267.085C114.973 266.853 114.752 266.576 114.575 266.256C114.403 265.93 114.257 265.574 114.136 265.188L114.729 264.937C114.882 264.872 115.031 264.854 115.175 264.882C115.319 264.91 115.424 264.991 115.489 265.126C115.559 265.265 115.638 265.423 115.726 265.6C115.819 265.772 115.942 265.937 116.096 266.095C116.249 266.249 116.44 266.379 116.667 266.486C116.9 266.593 117.191 266.646 117.539 266.646C117.874 266.646 118.167 266.593 118.418 266.486C118.669 266.374 118.878 266.232 119.046 266.06C119.213 265.884 119.339 265.688 119.422 265.474C119.506 265.261 119.548 265.049 119.548 264.84C119.548 264.579 119.515 264.34 119.45 264.121C119.385 263.903 119.26 263.717 119.074 263.563C118.892 263.405 118.639 263.282 118.313 263.194C117.988 263.106 117.565 263.061 117.044 263.061V262.071C117.472 262.066 117.832 262.022 118.125 261.938C118.423 261.855 118.662 261.739 118.843 261.59C119.025 261.441 119.155 261.264 119.234 261.06C119.318 260.855 119.36 260.627 119.36 260.376C119.36 260.102 119.318 259.862 119.234 259.658C119.15 259.453 119.032 259.284 118.878 259.149C118.73 259.009 118.55 258.907 118.341 258.842C118.137 258.772 117.914 258.737 117.672 258.737C117.43 258.737 117.207 258.772 117.002 258.842C116.798 258.912 116.616 259.009 116.458 259.135C116.3 259.26 116.168 259.409 116.061 259.581C115.954 259.753 115.877 259.939 115.831 260.139C115.765 260.316 115.682 260.434 115.579 260.495C115.482 260.555 115.34 260.569 115.154 260.537L114.436 260.411ZM128.79 266.66V267.699H123.378V266.66H125.498V260.097C125.498 259.888 125.505 259.672 125.519 259.449L123.817 260.892C123.752 260.943 123.687 260.976 123.622 260.99C123.557 261.004 123.494 261.006 123.434 260.997C123.378 260.988 123.327 260.969 123.28 260.941C123.238 260.909 123.203 260.876 123.176 260.844L122.75 260.251L125.749 257.663H126.858V266.66H128.79Z" fill="black"/>
</g>
<rect x="0.5" y="0.5" width="323.691" height="285.72" rx="10.3489" stroke="black"/>
<defs>
<clipPath id="clip0_1_392">
<rect width="324.691" height="286.72" rx="10.8489" fill="white"/>
</clipPath>
</defs>
</svg>
